M48
;DRILL file {Pcbnew (22-Jun-2014 BZR 4027)-stable} date Sun 29 Apr 2018 06:10:37 PM CDT
;FORMAT={-:-/ absolute / inch / decimal}
FMAT,2
INCH,TZ
T1C0.032
T2C0.040
T3C0.060
%
G90
G05
M72
T1
X6.5Y-5.55
X6.5Y-5.75
X6.6Y-5.45
X6.6Y-5.85
X6.7Y-5.45
X6.7Y-5.85
X6.8Y-5.4
X6.8Y-5.5
X6.8Y-5.6
X6.8Y-5.7
X6.85Y-5.9
X7.05Y-5.9
X7.1Y-5.4
X7.1Y-5.5
X7.1Y-5.6
X7.1Y-5.7
X7.2Y-5.4
X7.2Y-5.8
X7.3Y-5.4
X7.3Y-5.8
X7.45Y-5.9
X7.525Y-5.55
X7.525Y-5.75
X7.65Y-5.9
T2
X7.2Y-5.9
X7.3Y-5.9
X7.975Y-5.525
X7.975Y-5.625
X8.075Y-5.525
X8.075Y-5.625
T3
X6.5Y-5.4
X6.5Y-5.9
X7.4Y-5.6
X7.4Y-5.7
X8.25Y-5.4
X8.25Y-5.9
T0
M30
