G04 (created by PCBNEW (22-Jun-2014 BZR 4027)-stable) date Sun 29 Apr 2018 06:27:27 PM CDT*
%MOIN*%
G04 Gerber Fmt 3.4, Leading zero omitted, Abs format*
%FSLAX34Y34*%
G01*
G70*
G90*
G04 APERTURE LIST*
%ADD10C,0.00590551*%
%ADD11C,0.00393701*%
G04 APERTURE END LIST*
G54D10*
G54D11*
X77250Y-56000D02*
X78000Y-56000D01*
X77250Y-55500D02*
X78000Y-55500D01*
X78750Y-54250D02*
X78750Y-55250D01*
X78250Y-55250D02*
X78250Y-54250D01*
X78000Y-56000D02*
G75*
G03X78750Y-55250I0J750D01*
G74*
G01*
X78750Y-54250D02*
G75*
G03X78500Y-54000I-250J0D01*
G74*
G01*
X78500Y-54000D02*
G75*
G03X78250Y-54250I0J-250D01*
G74*
G01*
X78000Y-55500D02*
G75*
G03X78250Y-55250I0J250D01*
G74*
G01*
X77250Y-55500D02*
G75*
G03X77000Y-55750I0J-250D01*
G74*
G01*
X77000Y-55750D02*
G75*
G03X77250Y-56000I250J0D01*
G74*
G01*
X81250Y-57500D02*
G75*
G03X81500Y-57250I0J250D01*
G74*
G01*
X81500Y-57250D02*
G75*
G03X81250Y-57000I-250J0D01*
G74*
G01*
X77250Y-57500D02*
X81250Y-57500D01*
X77250Y-57000D02*
X81250Y-57000D01*
X77000Y-57250D02*
G75*
G03X77250Y-57500I250J0D01*
G74*
G01*
X77250Y-57000D02*
G75*
G03X77000Y-57250I0J-250D01*
G74*
G01*
X64250Y-59500D02*
X64250Y-53500D01*
X83000Y-59750D02*
X64500Y-59750D01*
X83250Y-53500D02*
X83250Y-59500D01*
X64500Y-53250D02*
X83000Y-53250D01*
X83000Y-59750D02*
G75*
G03X83250Y-59500I0J250D01*
G74*
G01*
X83250Y-53500D02*
G75*
G03X83000Y-53250I-250J0D01*
G74*
G01*
X64500Y-53250D02*
G75*
G03X64250Y-53500I0J-250D01*
G74*
G01*
X64250Y-59500D02*
G75*
G03X64500Y-59750I250J0D01*
G74*
G01*
M02*
