M48
;DRILL file {Pcbnew (2013-07-07 BZR 4022)-stable} date Fri 26 Aug 2022 02:56:45 AM CDT
;FORMAT={-:-/ absolute / inch / decimal}
FMAT,2
INCH,TZ
T1C0.032
T2C0.040
T3C0.056
%
G90
G05
M72
T1
X6.5Y-5.55
X6.5Y-5.75
X6.6Y-5.45
X6.6Y-5.85
X6.7Y-5.45
X6.7Y-5.85
X6.8Y-5.45
X6.8Y-5.55
X6.8Y-5.65
X6.8Y-5.75
X6.85Y-5.9
X7.05Y-5.9
X7.1Y-5.45
X7.1Y-5.55
X7.1Y-5.65
X7.1Y-5.75
X7.2Y-5.5
X7.2Y-5.7
X7.2Y-5.9
X7.425Y-5.4
X7.6Y-5.5
X7.625Y-5.4
T2
X7.2Y-5.4
X7.3Y-5.4
X7.925Y-5.525
X7.925Y-5.625
X8.025Y-5.525
X8.025Y-5.625
T3
X6.5Y-5.4
X6.5Y-5.9
X7.4Y-5.7
X7.4Y-5.8
T0
M30
