G04 (created by PCBNEW (2013-07-07 BZR 4022)-stable) date Fri 26 Aug 2022 02:56:40 AM CDT*
%MOIN*%
G04 Gerber Fmt 3.4, Leading zero omitted, Abs format*
%FSLAX34Y34*%
G01*
G70*
G90*
G04 APERTURE LIST*
%ADD10C,0.00590551*%
%ADD11C,0.00787402*%
%ADD12C,0.005*%
%ADD13C,0.006*%
%ADD14C,0.01*%
%ADD15C,0.0001*%
G04 APERTURE END LIST*
G54D10*
G54D11*
X80000Y-54000D02*
X80000Y-53750D01*
X79500Y-54000D02*
X80000Y-54000D01*
X79500Y-53750D02*
X79500Y-54000D01*
G54D12*
X70238Y-53601D02*
X70238Y-53351D01*
X70238Y-53470D02*
X70380Y-53470D01*
X70380Y-53601D02*
X70380Y-53351D01*
X70499Y-53470D02*
X70583Y-53470D01*
X70619Y-53601D02*
X70499Y-53601D01*
X70499Y-53351D01*
X70619Y-53351D01*
X70714Y-53529D02*
X70833Y-53529D01*
X70690Y-53601D02*
X70773Y-53351D01*
X70857Y-53601D01*
X70904Y-53351D02*
X71047Y-53351D01*
X70976Y-53601D02*
X70976Y-53351D01*
X71273Y-53601D02*
X71190Y-53482D01*
X71130Y-53601D02*
X71130Y-53351D01*
X71226Y-53351D01*
X71250Y-53363D01*
X71261Y-53375D01*
X71273Y-53398D01*
X71273Y-53434D01*
X71261Y-53458D01*
X71250Y-53470D01*
X71226Y-53482D01*
X71130Y-53482D01*
G54D13*
X73635Y-56257D02*
X73864Y-56257D01*
X73750Y-56371D02*
X73750Y-56142D01*
X73964Y-56071D02*
X74064Y-56371D01*
X74164Y-56071D01*
X74235Y-56171D02*
X74392Y-56171D01*
X74235Y-56371D01*
X74392Y-56371D01*
X73635Y-58757D02*
X73864Y-58757D01*
X73964Y-58571D02*
X74064Y-58871D01*
X74164Y-58571D01*
X74235Y-58671D02*
X74392Y-58671D01*
X74235Y-58871D01*
X74392Y-58871D01*
X65778Y-59071D02*
X65878Y-59371D01*
X65978Y-59071D01*
X66250Y-59342D02*
X66235Y-59357D01*
X66192Y-59371D01*
X66164Y-59371D01*
X66121Y-59357D01*
X66092Y-59328D01*
X66078Y-59300D01*
X66064Y-59242D01*
X66064Y-59200D01*
X66078Y-59142D01*
X66092Y-59114D01*
X66121Y-59085D01*
X66164Y-59071D01*
X66192Y-59071D01*
X66235Y-59085D01*
X66250Y-59100D01*
X66550Y-59342D02*
X66535Y-59357D01*
X66492Y-59371D01*
X66464Y-59371D01*
X66421Y-59357D01*
X66392Y-59328D01*
X66378Y-59300D01*
X66364Y-59242D01*
X66364Y-59200D01*
X66378Y-59142D01*
X66392Y-59114D01*
X66421Y-59085D01*
X66464Y-59071D01*
X66492Y-59071D01*
X66535Y-59085D01*
X66550Y-59100D01*
X65978Y-53585D02*
X65950Y-53571D01*
X65907Y-53571D01*
X65864Y-53585D01*
X65835Y-53614D01*
X65821Y-53642D01*
X65807Y-53700D01*
X65807Y-53742D01*
X65821Y-53800D01*
X65835Y-53828D01*
X65864Y-53857D01*
X65907Y-53871D01*
X65935Y-53871D01*
X65978Y-53857D01*
X65992Y-53842D01*
X65992Y-53742D01*
X65935Y-53742D01*
X66121Y-53871D02*
X66121Y-53571D01*
X66292Y-53871D01*
X66292Y-53571D01*
X66435Y-53871D02*
X66435Y-53571D01*
X66507Y-53571D01*
X66550Y-53585D01*
X66578Y-53614D01*
X66592Y-53642D01*
X66607Y-53700D01*
X66607Y-53742D01*
X66592Y-53800D01*
X66578Y-53828D01*
X66550Y-53857D01*
X66507Y-53871D01*
X66435Y-53871D01*
G54D14*
X80000Y-53400D02*
X80000Y-53650D01*
X79500Y-53400D02*
X79500Y-53650D01*
X79500Y-53400D02*
X80000Y-53400D01*
X81850Y-55750D02*
G75*
G03X81850Y-55750I-2100J0D01*
G74*
G01*
X67000Y-54500D02*
X67000Y-54900D01*
X67000Y-54900D02*
X67400Y-54900D01*
X67400Y-54900D02*
X67400Y-58100D01*
X67400Y-58100D02*
X66600Y-58100D01*
X66600Y-58100D02*
X66600Y-54900D01*
X66600Y-54900D02*
X67000Y-54900D01*
X67000Y-58500D02*
X67000Y-58100D01*
X66000Y-58500D02*
X66000Y-58100D01*
X66000Y-58100D02*
X65600Y-58100D01*
X65600Y-58100D02*
X65600Y-54900D01*
X65600Y-54900D02*
X66400Y-54900D01*
X66400Y-54900D02*
X66400Y-58100D01*
X66400Y-58100D02*
X66000Y-58100D01*
X66000Y-54500D02*
X66000Y-54900D01*
X72000Y-55000D02*
X72400Y-55000D01*
X72400Y-55000D02*
X72400Y-54600D01*
X72400Y-54600D02*
X75600Y-54600D01*
X75600Y-54600D02*
X75600Y-55400D01*
X75600Y-55400D02*
X72400Y-55400D01*
X72400Y-55400D02*
X72400Y-55000D01*
X76000Y-55000D02*
X75600Y-55000D01*
X69500Y-57700D02*
G75*
G03X69200Y-58000I0J-300D01*
G74*
G01*
X69800Y-58000D02*
G75*
G03X69500Y-57700I-300J0D01*
G74*
G01*
X68500Y-58000D02*
X68500Y-54000D01*
X68500Y-54000D02*
X70500Y-54000D01*
X70500Y-54000D02*
X70500Y-58000D01*
X70500Y-58000D02*
X68500Y-58000D01*
X72500Y-59500D02*
X71500Y-59500D01*
X72500Y-56500D02*
X71500Y-56500D01*
X71500Y-56500D02*
X71500Y-59500D01*
X72500Y-56500D02*
X72500Y-59500D01*
X64500Y-55000D02*
X65500Y-55000D01*
X64500Y-58000D02*
X65500Y-58000D01*
X65500Y-58000D02*
X65500Y-55000D01*
X64500Y-58000D02*
X64500Y-55000D01*
X71000Y-58500D02*
X71000Y-59500D01*
X68000Y-58500D02*
X68000Y-59500D01*
X68000Y-59500D02*
X71000Y-59500D01*
X68000Y-58500D02*
X71000Y-58500D01*
X76750Y-53500D02*
X76750Y-54500D01*
X73750Y-53500D02*
X73750Y-54500D01*
X73750Y-54500D02*
X76750Y-54500D01*
X73750Y-53500D02*
X76750Y-53500D01*
X71500Y-53500D02*
X73500Y-53500D01*
X73500Y-53500D02*
X73500Y-54500D01*
X73500Y-54500D02*
X71500Y-54500D01*
X71500Y-54500D02*
X71500Y-53500D01*
G54D15*
G36*
X75273Y-57207D02*
X75281Y-57203D01*
X75300Y-57191D01*
X75326Y-57174D01*
X75357Y-57153D01*
X75388Y-57132D01*
X75414Y-57115D01*
X75432Y-57103D01*
X75439Y-57099D01*
X75443Y-57100D01*
X75458Y-57108D01*
X75480Y-57119D01*
X75492Y-57125D01*
X75512Y-57134D01*
X75522Y-57136D01*
X75523Y-57133D01*
X75531Y-57118D01*
X75542Y-57092D01*
X75557Y-57058D01*
X75574Y-57018D01*
X75592Y-56975D01*
X75610Y-56931D01*
X75628Y-56889D01*
X75643Y-56851D01*
X75656Y-56821D01*
X75664Y-56799D01*
X75667Y-56790D01*
X75666Y-56788D01*
X75656Y-56779D01*
X75639Y-56766D01*
X75601Y-56735D01*
X75565Y-56689D01*
X75542Y-56637D01*
X75535Y-56579D01*
X75541Y-56526D01*
X75562Y-56475D01*
X75598Y-56428D01*
X75642Y-56394D01*
X75693Y-56372D01*
X75750Y-56365D01*
X75805Y-56371D01*
X75857Y-56392D01*
X75904Y-56427D01*
X75923Y-56450D01*
X75950Y-56497D01*
X75966Y-56547D01*
X75967Y-56559D01*
X75965Y-56615D01*
X75949Y-56668D01*
X75920Y-56715D01*
X75879Y-56754D01*
X75874Y-56758D01*
X75855Y-56772D01*
X75843Y-56781D01*
X75833Y-56789D01*
X75903Y-56959D01*
X75914Y-56986D01*
X75934Y-57032D01*
X75951Y-57072D01*
X75964Y-57104D01*
X75974Y-57125D01*
X75978Y-57134D01*
X75978Y-57134D01*
X75984Y-57135D01*
X75997Y-57130D01*
X76021Y-57119D01*
X76037Y-57111D01*
X76055Y-57102D01*
X76063Y-57099D01*
X76070Y-57103D01*
X76087Y-57114D01*
X76112Y-57131D01*
X76142Y-57151D01*
X76171Y-57171D01*
X76198Y-57189D01*
X76217Y-57201D01*
X76227Y-57206D01*
X76228Y-57206D01*
X76236Y-57201D01*
X76252Y-57189D01*
X76275Y-57167D01*
X76307Y-57135D01*
X76312Y-57130D01*
X76339Y-57102D01*
X76361Y-57079D01*
X76376Y-57063D01*
X76381Y-57056D01*
X76381Y-57056D01*
X76376Y-57046D01*
X76364Y-57027D01*
X76346Y-57000D01*
X76325Y-56969D01*
X76269Y-56887D01*
X76300Y-56810D01*
X76309Y-56787D01*
X76321Y-56758D01*
X76330Y-56738D01*
X76335Y-56729D01*
X76343Y-56726D01*
X76364Y-56721D01*
X76395Y-56714D01*
X76431Y-56708D01*
X76466Y-56701D01*
X76497Y-56695D01*
X76520Y-56691D01*
X76530Y-56689D01*
X76532Y-56687D01*
X76534Y-56682D01*
X76536Y-56672D01*
X76536Y-56653D01*
X76537Y-56623D01*
X76537Y-56579D01*
X76537Y-56575D01*
X76536Y-56533D01*
X76536Y-56500D01*
X76535Y-56479D01*
X76533Y-56471D01*
X76533Y-56471D01*
X76523Y-56468D01*
X76501Y-56464D01*
X76470Y-56457D01*
X76432Y-56450D01*
X76430Y-56450D01*
X76393Y-56443D01*
X76362Y-56436D01*
X76340Y-56431D01*
X76331Y-56428D01*
X76329Y-56426D01*
X76321Y-56411D01*
X76310Y-56388D01*
X76298Y-56360D01*
X76286Y-56331D01*
X76275Y-56304D01*
X76268Y-56285D01*
X76266Y-56276D01*
X76266Y-56276D01*
X76272Y-56267D01*
X76285Y-56247D01*
X76303Y-56221D01*
X76325Y-56189D01*
X76326Y-56186D01*
X76348Y-56155D01*
X76365Y-56128D01*
X76377Y-56109D01*
X76381Y-56101D01*
X76381Y-56100D01*
X76374Y-56091D01*
X76358Y-56073D01*
X76335Y-56049D01*
X76307Y-56021D01*
X76298Y-56013D01*
X76268Y-55983D01*
X76247Y-55963D01*
X76233Y-55953D01*
X76227Y-55950D01*
X76227Y-55951D01*
X76217Y-55956D01*
X76197Y-55969D01*
X76170Y-55988D01*
X76138Y-56009D01*
X76136Y-56011D01*
X76105Y-56032D01*
X76079Y-56050D01*
X76060Y-56062D01*
X76052Y-56067D01*
X76050Y-56067D01*
X76038Y-56063D01*
X76015Y-56056D01*
X75988Y-56045D01*
X75959Y-56033D01*
X75932Y-56022D01*
X75912Y-56013D01*
X75903Y-56008D01*
X75903Y-56007D01*
X75899Y-55996D01*
X75894Y-55972D01*
X75887Y-55940D01*
X75880Y-55901D01*
X75879Y-55895D01*
X75872Y-55858D01*
X75866Y-55827D01*
X75861Y-55805D01*
X75859Y-55796D01*
X75854Y-55795D01*
X75835Y-55794D01*
X75807Y-55793D01*
X75773Y-55793D01*
X75738Y-55793D01*
X75704Y-55794D01*
X75674Y-55795D01*
X75653Y-55796D01*
X75644Y-55798D01*
X75643Y-55799D01*
X75640Y-55810D01*
X75635Y-55834D01*
X75628Y-55866D01*
X75621Y-55905D01*
X75620Y-55912D01*
X75613Y-55949D01*
X75606Y-55980D01*
X75602Y-56001D01*
X75599Y-56009D01*
X75596Y-56011D01*
X75581Y-56018D01*
X75556Y-56028D01*
X75524Y-56041D01*
X75452Y-56070D01*
X75364Y-56009D01*
X75356Y-56004D01*
X75324Y-55982D01*
X75298Y-55965D01*
X75280Y-55953D01*
X75272Y-55949D01*
X75272Y-55949D01*
X75263Y-55957D01*
X75245Y-55973D01*
X75221Y-55997D01*
X75194Y-56024D01*
X75173Y-56045D01*
X75149Y-56070D01*
X75133Y-56086D01*
X75125Y-56097D01*
X75122Y-56104D01*
X75123Y-56108D01*
X75128Y-56117D01*
X75141Y-56136D01*
X75159Y-56163D01*
X75181Y-56194D01*
X75199Y-56221D01*
X75218Y-56250D01*
X75230Y-56271D01*
X75235Y-56282D01*
X75234Y-56286D01*
X75227Y-56303D01*
X75217Y-56330D01*
X75204Y-56361D01*
X75173Y-56431D01*
X75127Y-56439D01*
X75099Y-56445D01*
X75060Y-56452D01*
X75023Y-56459D01*
X74965Y-56471D01*
X74963Y-56683D01*
X74972Y-56687D01*
X74981Y-56690D01*
X75002Y-56694D01*
X75033Y-56700D01*
X75069Y-56707D01*
X75100Y-56713D01*
X75131Y-56719D01*
X75153Y-56723D01*
X75163Y-56725D01*
X75166Y-56729D01*
X75174Y-56744D01*
X75185Y-56768D01*
X75197Y-56797D01*
X75209Y-56826D01*
X75220Y-56854D01*
X75228Y-56875D01*
X75231Y-56886D01*
X75227Y-56894D01*
X75215Y-56912D01*
X75198Y-56938D01*
X75177Y-56969D01*
X75155Y-57000D01*
X75138Y-57027D01*
X75125Y-57046D01*
X75120Y-57054D01*
X75123Y-57060D01*
X75135Y-57075D01*
X75158Y-57099D01*
X75193Y-57134D01*
X75199Y-57139D01*
X75226Y-57166D01*
X75250Y-57187D01*
X75266Y-57202D01*
X75273Y-57207D01*
X75273Y-57207D01*
G37*
G54D13*
X81021Y-56321D02*
X81021Y-56564D01*
X81035Y-56592D01*
X81050Y-56607D01*
X81078Y-56621D01*
X81135Y-56621D01*
X81164Y-56607D01*
X81178Y-56592D01*
X81192Y-56564D01*
X81192Y-56321D01*
X81492Y-56621D02*
X81321Y-56621D01*
X81407Y-56621D02*
X81407Y-56321D01*
X81378Y-56364D01*
X81350Y-56392D01*
X81321Y-56407D01*
X79114Y-54621D02*
X78971Y-54621D01*
X78971Y-54321D01*
X79214Y-54621D02*
X79214Y-54321D01*
X79314Y-54535D01*
X79414Y-54321D01*
X79414Y-54621D01*
X79528Y-54321D02*
X79714Y-54321D01*
X79614Y-54435D01*
X79657Y-54435D01*
X79685Y-54450D01*
X79700Y-54464D01*
X79714Y-54492D01*
X79714Y-54564D01*
X79700Y-54592D01*
X79685Y-54607D01*
X79657Y-54621D01*
X79571Y-54621D01*
X79542Y-54607D01*
X79528Y-54592D01*
X79857Y-54621D02*
X79914Y-54621D01*
X79942Y-54607D01*
X79957Y-54592D01*
X79985Y-54550D01*
X80000Y-54492D01*
X80000Y-54378D01*
X79985Y-54350D01*
X79971Y-54335D01*
X79942Y-54321D01*
X79885Y-54321D01*
X79857Y-54335D01*
X79842Y-54350D01*
X79828Y-54378D01*
X79828Y-54450D01*
X79842Y-54478D01*
X79857Y-54492D01*
X79885Y-54507D01*
X79942Y-54507D01*
X79971Y-54492D01*
X79985Y-54478D01*
X80000Y-54450D01*
X80142Y-54621D02*
X80200Y-54621D01*
X80228Y-54607D01*
X80242Y-54592D01*
X80271Y-54550D01*
X80285Y-54492D01*
X80285Y-54378D01*
X80271Y-54350D01*
X80257Y-54335D01*
X80228Y-54321D01*
X80171Y-54321D01*
X80142Y-54335D01*
X80128Y-54350D01*
X80114Y-54378D01*
X80114Y-54450D01*
X80128Y-54478D01*
X80142Y-54492D01*
X80171Y-54507D01*
X80228Y-54507D01*
X80257Y-54492D01*
X80271Y-54478D01*
X80285Y-54450D01*
X80400Y-54535D02*
X80542Y-54535D01*
X80371Y-54621D02*
X80471Y-54321D01*
X80571Y-54621D01*
X67121Y-55750D02*
X66978Y-55850D01*
X67121Y-55921D02*
X66821Y-55921D01*
X66821Y-55807D01*
X66835Y-55778D01*
X66850Y-55764D01*
X66878Y-55750D01*
X66921Y-55750D01*
X66950Y-55764D01*
X66964Y-55778D01*
X66978Y-55807D01*
X66978Y-55921D01*
X66850Y-55635D02*
X66835Y-55621D01*
X66821Y-55592D01*
X66821Y-55521D01*
X66835Y-55492D01*
X66850Y-55478D01*
X66878Y-55464D01*
X66907Y-55464D01*
X66950Y-55478D01*
X67121Y-55650D01*
X67121Y-55464D01*
X66821Y-57664D02*
X66821Y-57478D01*
X66935Y-57578D01*
X66935Y-57535D01*
X66950Y-57507D01*
X66964Y-57492D01*
X66992Y-57478D01*
X67064Y-57478D01*
X67092Y-57492D01*
X67107Y-57507D01*
X67121Y-57535D01*
X67121Y-57621D01*
X67107Y-57649D01*
X67092Y-57664D01*
X67121Y-57349D02*
X66821Y-57349D01*
X67007Y-57321D02*
X67121Y-57235D01*
X66921Y-57235D02*
X67035Y-57349D01*
X66821Y-57135D02*
X66821Y-56950D01*
X66935Y-57050D01*
X66935Y-57007D01*
X66950Y-56978D01*
X66964Y-56964D01*
X66992Y-56950D01*
X67064Y-56950D01*
X67092Y-56964D01*
X67107Y-56978D01*
X67121Y-57007D01*
X67121Y-57092D01*
X67107Y-57121D01*
X67092Y-57135D01*
X66121Y-57350D02*
X65978Y-57450D01*
X66121Y-57521D02*
X65821Y-57521D01*
X65821Y-57407D01*
X65835Y-57378D01*
X65850Y-57364D01*
X65878Y-57350D01*
X65921Y-57350D01*
X65950Y-57364D01*
X65964Y-57378D01*
X65978Y-57407D01*
X65978Y-57521D01*
X65821Y-57250D02*
X65821Y-57064D01*
X65935Y-57164D01*
X65935Y-57121D01*
X65950Y-57092D01*
X65964Y-57078D01*
X65992Y-57064D01*
X66064Y-57064D01*
X66092Y-57078D01*
X66107Y-57092D01*
X66121Y-57121D01*
X66121Y-57207D01*
X66107Y-57235D01*
X66092Y-57250D01*
X65850Y-56049D02*
X65835Y-56035D01*
X65821Y-56007D01*
X65821Y-55935D01*
X65835Y-55907D01*
X65850Y-55892D01*
X65878Y-55878D01*
X65907Y-55878D01*
X65950Y-55892D01*
X66121Y-56064D01*
X66121Y-55878D01*
X65850Y-55764D02*
X65835Y-55749D01*
X65821Y-55721D01*
X65821Y-55649D01*
X65835Y-55621D01*
X65850Y-55607D01*
X65878Y-55592D01*
X65907Y-55592D01*
X65950Y-55607D01*
X66121Y-55778D01*
X66121Y-55592D01*
X66121Y-55464D02*
X65821Y-55464D01*
X66007Y-55435D02*
X66121Y-55350D01*
X65921Y-55350D02*
X66035Y-55464D01*
X73150Y-55121D02*
X73050Y-54978D01*
X72978Y-55121D02*
X72978Y-54821D01*
X73092Y-54821D01*
X73121Y-54835D01*
X73135Y-54850D01*
X73150Y-54878D01*
X73150Y-54921D01*
X73135Y-54950D01*
X73121Y-54964D01*
X73092Y-54978D01*
X72978Y-54978D01*
X73435Y-55121D02*
X73264Y-55121D01*
X73350Y-55121D02*
X73350Y-54821D01*
X73321Y-54864D01*
X73292Y-54892D01*
X73264Y-54907D01*
X74764Y-55121D02*
X74592Y-55121D01*
X74678Y-55121D02*
X74678Y-54821D01*
X74650Y-54864D01*
X74621Y-54892D01*
X74592Y-54907D01*
X74892Y-55121D02*
X74892Y-54821D01*
X74921Y-55007D02*
X75007Y-55121D01*
X75007Y-54921D02*
X74892Y-55035D01*
X69271Y-57071D02*
X69271Y-57314D01*
X69285Y-57342D01*
X69300Y-57357D01*
X69328Y-57371D01*
X69385Y-57371D01*
X69414Y-57357D01*
X69428Y-57342D01*
X69442Y-57314D01*
X69442Y-57071D01*
X69571Y-57100D02*
X69585Y-57085D01*
X69614Y-57071D01*
X69685Y-57071D01*
X69714Y-57085D01*
X69728Y-57100D01*
X69742Y-57128D01*
X69742Y-57157D01*
X69728Y-57200D01*
X69557Y-57371D01*
X69742Y-57371D01*
X69321Y-55964D02*
X69321Y-55907D01*
X69335Y-55878D01*
X69364Y-55850D01*
X69421Y-55835D01*
X69521Y-55835D01*
X69578Y-55850D01*
X69607Y-55878D01*
X69621Y-55907D01*
X69621Y-55964D01*
X69607Y-55992D01*
X69578Y-56021D01*
X69521Y-56035D01*
X69421Y-56035D01*
X69364Y-56021D01*
X69335Y-55992D01*
X69321Y-55964D01*
X69621Y-55707D02*
X69321Y-55707D01*
X69321Y-55592D01*
X69335Y-55564D01*
X69350Y-55550D01*
X69378Y-55535D01*
X69421Y-55535D01*
X69450Y-55550D01*
X69464Y-55564D01*
X69478Y-55592D01*
X69478Y-55707D01*
X69321Y-55350D02*
X69321Y-55321D01*
X69335Y-55292D01*
X69350Y-55278D01*
X69378Y-55264D01*
X69435Y-55250D01*
X69507Y-55250D01*
X69564Y-55264D01*
X69592Y-55278D01*
X69607Y-55292D01*
X69621Y-55321D01*
X69621Y-55350D01*
X69607Y-55378D01*
X69592Y-55392D01*
X69564Y-55407D01*
X69507Y-55421D01*
X69435Y-55421D01*
X69378Y-55407D01*
X69350Y-55392D01*
X69335Y-55378D01*
X69321Y-55350D01*
X69321Y-55150D02*
X69321Y-54950D01*
X69621Y-55078D01*
G54D12*
X72827Y-58791D02*
X72839Y-58803D01*
X72851Y-58839D01*
X72851Y-58863D01*
X72839Y-58898D01*
X72815Y-58922D01*
X72791Y-58934D01*
X72744Y-58946D01*
X72708Y-58946D01*
X72660Y-58934D01*
X72636Y-58922D01*
X72613Y-58898D01*
X72601Y-58863D01*
X72601Y-58839D01*
X72613Y-58803D01*
X72625Y-58791D01*
X72851Y-58553D02*
X72851Y-58696D01*
X72851Y-58625D02*
X72601Y-58625D01*
X72636Y-58648D01*
X72660Y-58672D01*
X72672Y-58696D01*
X72601Y-57660D02*
X72601Y-57636D01*
X72613Y-57613D01*
X72625Y-57601D01*
X72648Y-57589D01*
X72696Y-57577D01*
X72755Y-57577D01*
X72803Y-57589D01*
X72827Y-57601D01*
X72839Y-57613D01*
X72851Y-57636D01*
X72851Y-57660D01*
X72839Y-57684D01*
X72827Y-57696D01*
X72803Y-57708D01*
X72755Y-57720D01*
X72696Y-57720D01*
X72648Y-57708D01*
X72625Y-57696D01*
X72613Y-57684D01*
X72601Y-57660D01*
X72827Y-57470D02*
X72839Y-57458D01*
X72851Y-57470D01*
X72839Y-57482D01*
X72827Y-57470D01*
X72851Y-57470D01*
X72851Y-57220D02*
X72851Y-57363D01*
X72851Y-57291D02*
X72601Y-57291D01*
X72636Y-57315D01*
X72660Y-57339D01*
X72672Y-57363D01*
X72684Y-57005D02*
X72851Y-57005D01*
X72684Y-57113D02*
X72815Y-57113D01*
X72839Y-57101D01*
X72851Y-57077D01*
X72851Y-57041D01*
X72839Y-57017D01*
X72827Y-57005D01*
X72720Y-56803D02*
X72720Y-56886D01*
X72851Y-56886D02*
X72601Y-56886D01*
X72601Y-56767D01*
X64958Y-58327D02*
X64946Y-58339D01*
X64910Y-58351D01*
X64886Y-58351D01*
X64851Y-58339D01*
X64827Y-58315D01*
X64815Y-58291D01*
X64803Y-58244D01*
X64803Y-58208D01*
X64815Y-58160D01*
X64827Y-58136D01*
X64851Y-58113D01*
X64886Y-58101D01*
X64910Y-58101D01*
X64946Y-58113D01*
X64958Y-58125D01*
X65172Y-58184D02*
X65172Y-58351D01*
X65113Y-58089D02*
X65053Y-58267D01*
X65208Y-58267D01*
X64732Y-54851D02*
X64589Y-54851D01*
X64660Y-54851D02*
X64660Y-54601D01*
X64636Y-54636D01*
X64613Y-54660D01*
X64589Y-54672D01*
X64886Y-54601D02*
X64910Y-54601D01*
X64934Y-54613D01*
X64946Y-54625D01*
X64958Y-54648D01*
X64970Y-54696D01*
X64970Y-54755D01*
X64958Y-54803D01*
X64946Y-54827D01*
X64934Y-54839D01*
X64910Y-54851D01*
X64886Y-54851D01*
X64863Y-54839D01*
X64851Y-54827D01*
X64839Y-54803D01*
X64827Y-54755D01*
X64827Y-54696D01*
X64839Y-54648D01*
X64851Y-54625D01*
X64863Y-54613D01*
X64886Y-54601D01*
X65077Y-54684D02*
X65077Y-54851D01*
X65077Y-54708D02*
X65089Y-54696D01*
X65113Y-54684D01*
X65148Y-54684D01*
X65172Y-54696D01*
X65184Y-54720D01*
X65184Y-54851D01*
X65386Y-54720D02*
X65303Y-54720D01*
X65303Y-54851D02*
X65303Y-54601D01*
X65422Y-54601D01*
X67958Y-58327D02*
X67946Y-58339D01*
X67910Y-58351D01*
X67886Y-58351D01*
X67851Y-58339D01*
X67827Y-58315D01*
X67815Y-58291D01*
X67803Y-58244D01*
X67803Y-58208D01*
X67815Y-58160D01*
X67827Y-58136D01*
X67851Y-58113D01*
X67886Y-58101D01*
X67910Y-58101D01*
X67946Y-58113D01*
X67958Y-58125D01*
X68041Y-58101D02*
X68196Y-58101D01*
X68113Y-58196D01*
X68148Y-58196D01*
X68172Y-58208D01*
X68184Y-58220D01*
X68196Y-58244D01*
X68196Y-58303D01*
X68184Y-58327D01*
X68172Y-58339D01*
X68148Y-58351D01*
X68077Y-58351D01*
X68053Y-58339D01*
X68041Y-58327D01*
X67601Y-59410D02*
X67601Y-59386D01*
X67613Y-59363D01*
X67625Y-59351D01*
X67648Y-59339D01*
X67696Y-59327D01*
X67755Y-59327D01*
X67803Y-59339D01*
X67827Y-59351D01*
X67839Y-59363D01*
X67851Y-59386D01*
X67851Y-59410D01*
X67839Y-59434D01*
X67827Y-59446D01*
X67803Y-59458D01*
X67755Y-59470D01*
X67696Y-59470D01*
X67648Y-59458D01*
X67625Y-59446D01*
X67613Y-59434D01*
X67601Y-59410D01*
X67827Y-59220D02*
X67839Y-59208D01*
X67851Y-59220D01*
X67839Y-59232D01*
X67827Y-59220D01*
X67851Y-59220D01*
X67851Y-58970D02*
X67851Y-59113D01*
X67851Y-59041D02*
X67601Y-59041D01*
X67636Y-59065D01*
X67660Y-59089D01*
X67672Y-59113D01*
X67684Y-58755D02*
X67851Y-58755D01*
X67684Y-58863D02*
X67815Y-58863D01*
X67839Y-58851D01*
X67851Y-58827D01*
X67851Y-58791D01*
X67839Y-58767D01*
X67827Y-58755D01*
X67720Y-58553D02*
X67720Y-58636D01*
X67851Y-58636D02*
X67601Y-58636D01*
X67601Y-58517D01*
X73577Y-54041D02*
X73589Y-54053D01*
X73601Y-54089D01*
X73601Y-54113D01*
X73589Y-54148D01*
X73565Y-54172D01*
X73541Y-54184D01*
X73494Y-54196D01*
X73458Y-54196D01*
X73410Y-54184D01*
X73386Y-54172D01*
X73363Y-54148D01*
X73351Y-54113D01*
X73351Y-54089D01*
X73363Y-54053D01*
X73375Y-54041D01*
X73375Y-53946D02*
X73363Y-53934D01*
X73351Y-53910D01*
X73351Y-53851D01*
X73363Y-53827D01*
X73375Y-53815D01*
X73398Y-53803D01*
X73422Y-53803D01*
X73458Y-53815D01*
X73601Y-53958D01*
X73601Y-53803D01*
X76851Y-54410D02*
X76851Y-54386D01*
X76863Y-54363D01*
X76875Y-54351D01*
X76898Y-54339D01*
X76946Y-54327D01*
X77005Y-54327D01*
X77053Y-54339D01*
X77077Y-54351D01*
X77089Y-54363D01*
X77101Y-54386D01*
X77101Y-54410D01*
X77089Y-54434D01*
X77077Y-54446D01*
X77053Y-54458D01*
X77005Y-54470D01*
X76946Y-54470D01*
X76898Y-54458D01*
X76875Y-54446D01*
X76863Y-54434D01*
X76851Y-54410D01*
X77077Y-54220D02*
X77089Y-54208D01*
X77101Y-54220D01*
X77089Y-54232D01*
X77077Y-54220D01*
X77101Y-54220D01*
X77101Y-53970D02*
X77101Y-54113D01*
X77101Y-54041D02*
X76851Y-54041D01*
X76886Y-54065D01*
X76910Y-54089D01*
X76922Y-54113D01*
X76934Y-53755D02*
X77101Y-53755D01*
X76934Y-53863D02*
X77065Y-53863D01*
X77089Y-53851D01*
X77101Y-53827D01*
X77101Y-53791D01*
X77089Y-53767D01*
X77077Y-53755D01*
X76970Y-53553D02*
X76970Y-53636D01*
X77101Y-53636D02*
X76851Y-53636D01*
X76851Y-53517D01*
G54D10*
G36*
X81950Y-59450D02*
X75050Y-59450D01*
X75050Y-57800D01*
X81950Y-57800D01*
X81950Y-59450D01*
X81950Y-59450D01*
G37*
G54D14*
X81950Y-59450D02*
X75050Y-59450D01*
X75050Y-57800D01*
X81950Y-57800D01*
X81950Y-59450D01*
M02*
