G04 (created by PCBNEW (2013-07-07 BZR 4022)-stable) date Fri 26 Aug 2022 02:56:40 AM CDT*
%MOIN*%
G04 Gerber Fmt 3.4, Leading zero omitted, Abs format*
%FSLAX34Y34*%
G01*
G70*
G90*
G04 APERTURE LIST*
%ADD10C,0.00590551*%
%ADD11R,0.059X0.059*%
%ADD12C,0.059*%
%ADD13O,0.059X0.059*%
%ADD14R,0.059X0.114*%
%ADD15R,0.114X0.059*%
%ADD16R,0.069X0.069*%
%ADD17C,0.069*%
%ADD18C,0.079*%
%ADD19R,0.079X0.079*%
%ADD20C,0.01*%
G04 APERTURE END LIST*
G54D10*
G54D11*
X79250Y-55250D03*
G54D12*
X80250Y-56250D03*
X80250Y-55250D03*
X79250Y-56250D03*
G54D13*
X67000Y-54500D03*
X67000Y-58500D03*
X66000Y-58500D03*
X66000Y-54500D03*
X72000Y-55000D03*
X76000Y-55000D03*
G54D11*
X71000Y-57500D03*
G54D13*
X71000Y-56500D03*
X71000Y-55500D03*
X71000Y-54500D03*
X68000Y-54500D03*
X68000Y-55500D03*
X68000Y-57500D03*
X68000Y-56500D03*
G54D14*
X72000Y-57275D03*
X72000Y-58725D03*
X65000Y-57225D03*
X65000Y-55775D03*
G54D15*
X68775Y-59000D03*
X70225Y-59000D03*
X74525Y-54000D03*
X75975Y-54000D03*
G54D16*
X72000Y-54000D03*
G54D17*
X73000Y-54000D03*
G54D18*
X65000Y-54000D03*
G54D19*
X65000Y-59000D03*
G54D18*
X74000Y-58000D03*
G54D19*
X74000Y-57000D03*
G54D20*
X71000Y-55500D02*
X72250Y-55500D01*
X72750Y-55000D02*
X76000Y-55000D01*
X72250Y-55500D02*
X72750Y-55000D01*
X76500Y-56250D02*
X76250Y-56000D01*
X78750Y-55500D02*
X79000Y-55250D01*
X78750Y-55500D02*
X78000Y-56250D01*
X79250Y-55250D02*
X79000Y-55250D01*
X76750Y-56250D02*
X76500Y-56250D01*
X78000Y-56250D02*
X76750Y-56250D01*
X76000Y-55500D02*
X76000Y-55000D01*
X76000Y-55750D02*
X76000Y-55500D01*
X76250Y-56000D02*
X76000Y-55750D01*
X74000Y-57000D02*
X72000Y-57000D01*
X76250Y-56750D02*
X74250Y-56750D01*
X78250Y-56500D02*
X78000Y-56750D01*
X76750Y-56750D02*
X76250Y-56750D01*
X78000Y-56750D02*
X76750Y-56750D01*
X79000Y-55750D02*
X79250Y-55500D01*
X78250Y-56500D02*
X79000Y-55750D01*
X79250Y-55250D02*
X79250Y-55500D01*
X74250Y-56750D02*
X74000Y-57000D01*
X77000Y-53750D02*
X78250Y-53750D01*
X78250Y-53750D02*
X78500Y-54000D01*
X78500Y-54000D02*
X78500Y-54250D01*
X78500Y-54250D02*
X78750Y-54500D01*
X78750Y-54500D02*
X80250Y-54500D01*
X80250Y-54500D02*
X80750Y-55000D01*
X80750Y-55000D02*
X80750Y-55750D01*
X80750Y-55750D02*
X80250Y-56250D01*
X77000Y-53750D02*
X76750Y-53500D01*
X74750Y-54000D02*
X74250Y-54000D01*
X75250Y-53500D02*
X74750Y-54000D01*
X76750Y-53500D02*
X75250Y-53500D01*
X73000Y-54000D02*
X74250Y-54000D01*
X80250Y-54500D02*
X78750Y-54500D01*
X78500Y-54000D02*
X78250Y-53750D01*
X78500Y-54250D02*
X78500Y-54000D01*
X78750Y-54500D02*
X78500Y-54250D01*
X77000Y-53750D02*
X77000Y-53750D01*
X80250Y-56250D02*
X80750Y-55750D01*
X80500Y-54750D02*
X80250Y-54500D01*
X80750Y-55000D02*
X80500Y-54750D01*
X80750Y-55750D02*
X80750Y-55000D01*
X67000Y-58500D02*
X67000Y-57250D01*
X70500Y-57000D02*
X71000Y-56500D01*
X67250Y-57000D02*
X70500Y-57000D01*
X67000Y-57250D02*
X67250Y-57000D01*
X65000Y-57500D02*
X66000Y-58500D01*
X68000Y-55500D02*
X68500Y-55000D01*
X68500Y-55000D02*
X72000Y-55000D01*
X71000Y-53500D02*
X71500Y-53500D01*
X66500Y-58750D02*
X66250Y-59000D01*
X65000Y-59000D02*
X66250Y-59000D01*
X67750Y-53500D02*
X66750Y-53500D01*
X69000Y-53500D02*
X67750Y-53500D01*
X71000Y-53500D02*
X69000Y-53500D01*
X66500Y-53750D02*
X66500Y-58000D01*
X66750Y-53500D02*
X66500Y-53750D01*
X66500Y-58000D02*
X66500Y-58750D01*
X71500Y-53500D02*
X72000Y-54000D01*
X65000Y-59000D02*
X65250Y-59000D01*
X68250Y-59250D02*
X68500Y-59000D01*
X65500Y-59250D02*
X68250Y-59250D01*
X65250Y-59000D02*
X65500Y-59250D01*
M02*
