G04 (created by PCBNEW (22-Jun-2014 BZR 4027)-stable) date Wed 28 Mar 2018 02:05:40 AM CDT*
%MOIN*%
G04 Gerber Fmt 3.4, Leading zero omitted, Abs format*
%FSLAX34Y34*%
G01*
G70*
G90*
G04 APERTURE LIST*
%ADD10C,0.00590551*%
%ADD11C,0.006*%
%ADD12C,0.01*%
G04 APERTURE END LIST*
G54D10*
G54D11*
X81600Y-53571D02*
X81600Y-53814D01*
X81614Y-53842D01*
X81628Y-53857D01*
X81657Y-53871D01*
X81700Y-53871D01*
X81728Y-53857D01*
X81600Y-53757D02*
X81628Y-53771D01*
X81685Y-53771D01*
X81714Y-53757D01*
X81728Y-53742D01*
X81742Y-53714D01*
X81742Y-53628D01*
X81728Y-53600D01*
X81714Y-53585D01*
X81685Y-53571D01*
X81628Y-53571D01*
X81600Y-53585D01*
X81457Y-53771D02*
X81457Y-53571D01*
X81457Y-53471D02*
X81471Y-53485D01*
X81457Y-53500D01*
X81442Y-53485D01*
X81457Y-53471D01*
X81457Y-53500D01*
X81357Y-53571D02*
X81242Y-53571D01*
X81314Y-53471D02*
X81314Y-53728D01*
X81300Y-53757D01*
X81271Y-53771D01*
X81242Y-53771D01*
X81142Y-53771D02*
X81142Y-53471D01*
X81014Y-53771D02*
X81014Y-53614D01*
X81028Y-53585D01*
X81057Y-53571D01*
X81100Y-53571D01*
X81128Y-53585D01*
X81142Y-53600D01*
X80742Y-53571D02*
X80742Y-53771D01*
X80871Y-53571D02*
X80871Y-53728D01*
X80857Y-53757D01*
X80828Y-53771D01*
X80785Y-53771D01*
X80757Y-53757D01*
X80742Y-53742D01*
X80600Y-53771D02*
X80600Y-53471D01*
X80600Y-53585D02*
X80571Y-53571D01*
X80514Y-53571D01*
X80485Y-53585D01*
X80471Y-53600D01*
X80457Y-53628D01*
X80457Y-53714D01*
X80471Y-53742D01*
X80485Y-53757D01*
X80514Y-53771D01*
X80571Y-53771D01*
X80600Y-53757D01*
X80328Y-53742D02*
X80314Y-53757D01*
X80328Y-53771D01*
X80342Y-53757D01*
X80328Y-53742D01*
X80328Y-53771D01*
X80057Y-53757D02*
X80085Y-53771D01*
X80142Y-53771D01*
X80171Y-53757D01*
X80185Y-53742D01*
X80200Y-53714D01*
X80200Y-53628D01*
X80185Y-53600D01*
X80171Y-53585D01*
X80142Y-53571D01*
X80085Y-53571D01*
X80057Y-53585D01*
X79885Y-53771D02*
X79914Y-53757D01*
X79928Y-53742D01*
X79942Y-53714D01*
X79942Y-53628D01*
X79928Y-53600D01*
X79914Y-53585D01*
X79885Y-53571D01*
X79842Y-53571D01*
X79814Y-53585D01*
X79800Y-53600D01*
X79785Y-53628D01*
X79785Y-53714D01*
X79800Y-53742D01*
X79814Y-53757D01*
X79842Y-53771D01*
X79885Y-53771D01*
X79657Y-53771D02*
X79657Y-53571D01*
X79657Y-53600D02*
X79642Y-53585D01*
X79614Y-53571D01*
X79571Y-53571D01*
X79542Y-53585D01*
X79528Y-53614D01*
X79528Y-53771D01*
X79528Y-53614D02*
X79514Y-53585D01*
X79485Y-53571D01*
X79442Y-53571D01*
X79414Y-53585D01*
X79400Y-53614D01*
X79400Y-53771D01*
X79042Y-53457D02*
X79300Y-53842D01*
X78942Y-53571D02*
X78942Y-53871D01*
X78942Y-53585D02*
X78914Y-53571D01*
X78857Y-53571D01*
X78828Y-53585D01*
X78814Y-53600D01*
X78799Y-53628D01*
X78799Y-53714D01*
X78814Y-53742D01*
X78828Y-53757D01*
X78857Y-53771D01*
X78914Y-53771D01*
X78942Y-53757D01*
X78557Y-53757D02*
X78585Y-53771D01*
X78642Y-53771D01*
X78671Y-53757D01*
X78685Y-53728D01*
X78685Y-53614D01*
X78671Y-53585D01*
X78642Y-53571D01*
X78585Y-53571D01*
X78557Y-53585D01*
X78542Y-53614D01*
X78542Y-53642D01*
X78685Y-53671D01*
X78414Y-53571D02*
X78414Y-53871D01*
X78414Y-53585D02*
X78385Y-53571D01*
X78328Y-53571D01*
X78299Y-53585D01*
X78285Y-53600D01*
X78271Y-53628D01*
X78271Y-53714D01*
X78285Y-53742D01*
X78299Y-53757D01*
X78328Y-53771D01*
X78385Y-53771D01*
X78414Y-53757D01*
X78014Y-53771D02*
X78014Y-53614D01*
X78028Y-53585D01*
X78057Y-53571D01*
X78114Y-53571D01*
X78142Y-53585D01*
X78014Y-53757D02*
X78042Y-53771D01*
X78114Y-53771D01*
X78142Y-53757D01*
X78157Y-53728D01*
X78157Y-53700D01*
X78142Y-53671D01*
X78114Y-53657D01*
X78042Y-53657D01*
X78014Y-53642D01*
X77885Y-53757D02*
X77857Y-53771D01*
X77799Y-53771D01*
X77771Y-53757D01*
X77757Y-53728D01*
X77757Y-53714D01*
X77771Y-53685D01*
X77799Y-53671D01*
X77842Y-53671D01*
X77871Y-53657D01*
X77885Y-53628D01*
X77885Y-53614D01*
X77871Y-53585D01*
X77842Y-53571D01*
X77799Y-53571D01*
X77771Y-53585D01*
X77585Y-53771D02*
X77614Y-53757D01*
X77628Y-53728D01*
X77628Y-53471D01*
X77342Y-53771D02*
X77342Y-53614D01*
X77357Y-53585D01*
X77385Y-53571D01*
X77442Y-53571D01*
X77471Y-53585D01*
X77342Y-53757D02*
X77371Y-53771D01*
X77442Y-53771D01*
X77471Y-53757D01*
X77485Y-53728D01*
X77485Y-53700D01*
X77471Y-53671D01*
X77442Y-53657D01*
X77371Y-53657D01*
X77342Y-53642D01*
X77199Y-53771D02*
X77199Y-53471D01*
X77199Y-53585D02*
X77171Y-53571D01*
X77114Y-53571D01*
X77085Y-53585D01*
X77071Y-53600D01*
X77057Y-53628D01*
X77057Y-53714D01*
X77071Y-53742D01*
X77085Y-53757D01*
X77114Y-53771D01*
X77171Y-53771D01*
X77199Y-53757D01*
X76942Y-53757D02*
X76914Y-53771D01*
X76857Y-53771D01*
X76828Y-53757D01*
X76814Y-53728D01*
X76814Y-53714D01*
X76828Y-53685D01*
X76857Y-53671D01*
X76899Y-53671D01*
X76928Y-53657D01*
X76942Y-53628D01*
X76942Y-53614D01*
X76928Y-53585D01*
X76899Y-53571D01*
X76857Y-53571D01*
X76828Y-53585D01*
X76471Y-53457D02*
X76728Y-53842D01*
X76328Y-53771D02*
X76357Y-53757D01*
X76371Y-53728D01*
X76371Y-53471D01*
X76214Y-53771D02*
X76214Y-53571D01*
X76214Y-53600D02*
X76199Y-53585D01*
X76171Y-53571D01*
X76128Y-53571D01*
X76099Y-53585D01*
X76085Y-53614D01*
X76085Y-53771D01*
X76085Y-53614D02*
X76071Y-53585D01*
X76042Y-53571D01*
X75999Y-53571D01*
X75971Y-53585D01*
X75957Y-53614D01*
X75957Y-53771D01*
X75842Y-53471D02*
X75657Y-53471D01*
X75757Y-53585D01*
X75714Y-53585D01*
X75685Y-53600D01*
X75671Y-53614D01*
X75657Y-53642D01*
X75657Y-53714D01*
X75671Y-53742D01*
X75685Y-53757D01*
X75714Y-53771D01*
X75799Y-53771D01*
X75828Y-53757D01*
X75842Y-53742D01*
X75514Y-53771D02*
X75457Y-53771D01*
X75428Y-53757D01*
X75414Y-53742D01*
X75385Y-53700D01*
X75371Y-53642D01*
X75371Y-53528D01*
X75385Y-53500D01*
X75399Y-53485D01*
X75428Y-53471D01*
X75485Y-53471D01*
X75514Y-53485D01*
X75528Y-53500D01*
X75542Y-53528D01*
X75542Y-53600D01*
X75528Y-53628D01*
X75514Y-53642D01*
X75485Y-53657D01*
X75428Y-53657D01*
X75399Y-53642D01*
X75385Y-53628D01*
X75371Y-53600D01*
X75228Y-53771D02*
X75171Y-53771D01*
X75142Y-53757D01*
X75128Y-53742D01*
X75099Y-53700D01*
X75085Y-53642D01*
X75085Y-53528D01*
X75099Y-53500D01*
X75114Y-53485D01*
X75142Y-53471D01*
X75199Y-53471D01*
X75228Y-53485D01*
X75242Y-53500D01*
X75257Y-53528D01*
X75257Y-53600D01*
X75242Y-53628D01*
X75228Y-53642D01*
X75199Y-53657D01*
X75142Y-53657D01*
X75114Y-53642D01*
X75099Y-53628D01*
X75085Y-53600D01*
X74957Y-53657D02*
X74728Y-53657D01*
X74599Y-53757D02*
X74571Y-53771D01*
X74514Y-53771D01*
X74485Y-53757D01*
X74471Y-53728D01*
X74471Y-53714D01*
X74485Y-53685D01*
X74514Y-53671D01*
X74557Y-53671D01*
X74585Y-53657D01*
X74599Y-53628D01*
X74599Y-53614D01*
X74585Y-53585D01*
X74557Y-53571D01*
X74514Y-53571D01*
X74485Y-53585D01*
X74385Y-53571D02*
X74271Y-53571D01*
X74342Y-53471D02*
X74342Y-53728D01*
X74328Y-53757D01*
X74299Y-53771D01*
X74271Y-53771D01*
X74171Y-53771D02*
X74171Y-53571D01*
X74171Y-53471D02*
X74185Y-53485D01*
X74171Y-53500D01*
X74157Y-53485D01*
X74171Y-53471D01*
X74171Y-53500D01*
X73899Y-53757D02*
X73928Y-53771D01*
X73985Y-53771D01*
X74014Y-53757D01*
X74028Y-53742D01*
X74042Y-53714D01*
X74042Y-53628D01*
X74028Y-53600D01*
X74014Y-53585D01*
X73985Y-53571D01*
X73928Y-53571D01*
X73899Y-53585D01*
X73771Y-53771D02*
X73771Y-53471D01*
X73742Y-53657D02*
X73657Y-53771D01*
X73657Y-53571D02*
X73771Y-53685D01*
G54D10*
G36*
X81700Y-59450D02*
X77300Y-59450D01*
X77300Y-57800D01*
X81700Y-57800D01*
X81700Y-59450D01*
X81700Y-59450D01*
G37*
G54D12*
X81700Y-59450D02*
X77300Y-59450D01*
X77300Y-57800D01*
X81700Y-57800D01*
X81700Y-59450D01*
M02*
