G04 (created by PCBNEW (22-Jun-2014 BZR 4027)-stable) date Wed 28 Mar 2018 01:35:14 AM CDT*
%MOIN*%
G04 Gerber Fmt 3.4, Leading zero omitted, Abs format*
%FSLAX34Y34*%
G01*
G70*
G90*
G04 APERTURE LIST*
%ADD10C,0.00590551*%
%ADD11R,0.059X0.059*%
%ADD12C,0.059*%
%ADD13R,0.069X0.069*%
%ADD14O,0.059X0.059*%
%ADD15R,0.059X0.114*%
%ADD16R,0.114X0.059*%
%ADD17C,0.069*%
%ADD18C,0.01*%
G04 APERTURE END LIST*
G54D10*
G54D11*
X79750Y-55250D03*
G54D12*
X80750Y-56250D03*
X80750Y-55250D03*
X79750Y-56250D03*
G54D13*
X65000Y-59000D03*
X65000Y-54000D03*
X74000Y-57000D03*
X74000Y-56000D03*
G54D14*
X66000Y-54500D03*
X66000Y-58500D03*
X67000Y-58500D03*
X67000Y-54500D03*
X72000Y-54000D03*
X72000Y-58000D03*
G54D11*
X71000Y-57000D03*
G54D14*
X71000Y-56000D03*
X71000Y-55000D03*
X71000Y-54000D03*
X68000Y-54000D03*
X68000Y-55000D03*
X68000Y-57000D03*
X68000Y-56000D03*
G54D15*
X75250Y-57225D03*
X75250Y-55775D03*
X65000Y-55775D03*
X65000Y-57225D03*
G54D16*
X68775Y-59000D03*
X70225Y-59000D03*
X74775Y-59000D03*
X76225Y-59000D03*
G54D14*
X73000Y-58000D03*
X73000Y-54000D03*
G54D13*
X72000Y-59000D03*
G54D17*
X73000Y-59000D03*
G54D13*
X82500Y-54000D03*
X82500Y-59000D03*
G54D18*
X80000Y-56750D02*
X80250Y-56500D01*
X76750Y-56750D02*
X80000Y-56750D01*
X76500Y-57000D02*
X76750Y-56750D01*
X76500Y-59000D02*
X76500Y-57000D01*
X80250Y-55750D02*
X80750Y-55250D01*
X80250Y-56500D02*
X80250Y-55750D01*
X79250Y-56500D02*
X79500Y-56500D01*
X79500Y-56500D02*
X79750Y-56250D01*
X79000Y-56250D02*
X79750Y-56250D01*
X79000Y-56250D02*
X76250Y-56250D01*
X76250Y-56250D02*
X75750Y-55750D01*
X75750Y-55750D02*
X75750Y-55250D01*
X75750Y-55250D02*
X75750Y-55000D01*
X75750Y-55000D02*
X75500Y-54750D01*
X75500Y-54750D02*
X75000Y-54750D01*
X75000Y-54750D02*
X74500Y-55250D01*
X74500Y-55250D02*
X73500Y-55250D01*
X73500Y-55250D02*
X73250Y-55500D01*
X73250Y-55500D02*
X73250Y-56250D01*
X73250Y-56250D02*
X73000Y-56500D01*
X73000Y-56500D02*
X72250Y-56500D01*
X72250Y-56500D02*
X72000Y-56250D01*
X72000Y-56250D02*
X72000Y-56000D01*
X71750Y-55750D02*
X72000Y-56000D01*
X71750Y-54500D02*
X71750Y-55750D01*
X71500Y-54250D02*
X71750Y-54500D01*
X71250Y-54000D02*
X71500Y-54250D01*
X71000Y-54000D02*
X71250Y-54000D01*
X75250Y-55750D02*
X75250Y-55500D01*
X76000Y-56500D02*
X75250Y-55750D01*
X79250Y-56500D02*
X76000Y-56500D01*
X71000Y-54000D02*
X71500Y-54500D01*
X75500Y-58000D02*
X76500Y-59000D01*
X74750Y-58000D02*
X75500Y-58000D01*
X74500Y-57750D02*
X74750Y-58000D01*
X73500Y-57750D02*
X74500Y-57750D01*
X73250Y-57500D02*
X73500Y-57750D01*
X73250Y-57000D02*
X73250Y-57500D01*
X73000Y-56750D02*
X73250Y-57000D01*
X72000Y-56750D02*
X73000Y-56750D01*
X71500Y-56250D02*
X72000Y-56750D01*
X71500Y-56000D02*
X71500Y-56250D01*
X71500Y-54500D02*
X71500Y-56000D01*
X74000Y-56000D02*
X74750Y-56000D01*
X74750Y-56000D02*
X75250Y-55500D01*
X70500Y-59000D02*
X70250Y-58750D01*
X70250Y-54750D02*
X71000Y-54000D01*
X70250Y-58750D02*
X70250Y-54750D01*
X67000Y-54500D02*
X70000Y-54500D01*
X70000Y-54500D02*
X70500Y-54000D01*
X70500Y-54000D02*
X71000Y-54000D01*
X65000Y-54000D02*
X65500Y-53500D01*
X70500Y-53500D02*
X71000Y-54000D01*
X65500Y-53500D02*
X70500Y-53500D01*
M02*
