G04 (created by PCBNEW (2013-07-07 BZR 4022)-stable) date Sun 21 May 2017 12:44:06 AM CDT*
%MOIN*%
G04 Gerber Fmt 3.4, Leading zero omitted, Abs format*
%FSLAX34Y34*%
G01*
G70*
G90*
G04 APERTURE LIST*
%ADD10C,0.00590551*%
%ADD11C,0.05*%
%ADD12C,0.005*%
%ADD13C,0.006*%
%ADD14C,0.01*%
%ADD15C,0.0001*%
G04 APERTURE END LIST*
G54D10*
G54D11*
X126650Y-23400D02*
G75*
G03X126650Y-23400I-250J0D01*
G74*
G01*
X126650Y-22300D02*
G75*
G03X126650Y-22300I-250J0D01*
G74*
G01*
X126650Y-21200D02*
G75*
G03X126650Y-21200I-250J0D01*
G74*
G01*
X126650Y-20100D02*
G75*
G03X126650Y-20100I-250J0D01*
G74*
G01*
X126650Y-19000D02*
G75*
G03X126650Y-19000I-250J0D01*
G74*
G01*
G54D12*
X117984Y-21078D02*
X118151Y-21019D01*
X117984Y-20959D01*
X118151Y-20733D02*
X118151Y-20876D01*
X118151Y-20804D02*
X117901Y-20804D01*
X117936Y-20828D01*
X117960Y-20852D01*
X117972Y-20876D01*
G54D13*
X118107Y-24164D02*
X118121Y-24121D01*
X118121Y-24049D01*
X118107Y-24021D01*
X118092Y-24007D01*
X118064Y-23992D01*
X118035Y-23992D01*
X118007Y-24007D01*
X117992Y-24021D01*
X117978Y-24049D01*
X117964Y-24107D01*
X117950Y-24135D01*
X117935Y-24149D01*
X117907Y-24164D01*
X117878Y-24164D01*
X117850Y-24149D01*
X117835Y-24135D01*
X117821Y-24107D01*
X117821Y-24035D01*
X117835Y-23992D01*
X118121Y-23864D02*
X117921Y-23864D01*
X117950Y-23864D02*
X117935Y-23850D01*
X117921Y-23821D01*
X117921Y-23778D01*
X117935Y-23750D01*
X117964Y-23735D01*
X118121Y-23735D01*
X117964Y-23735D02*
X117935Y-23721D01*
X117921Y-23692D01*
X117921Y-23650D01*
X117935Y-23621D01*
X117964Y-23607D01*
X118121Y-23607D01*
X118121Y-23335D02*
X117964Y-23335D01*
X117935Y-23350D01*
X117921Y-23378D01*
X117921Y-23435D01*
X117935Y-23464D01*
X118107Y-23335D02*
X118121Y-23364D01*
X118121Y-23435D01*
X118107Y-23464D01*
X118078Y-23478D01*
X118050Y-23478D01*
X118021Y-23464D01*
X118007Y-23435D01*
X118007Y-23364D01*
X117992Y-23335D01*
X118121Y-23149D02*
X118107Y-23178D01*
X118078Y-23192D01*
X117821Y-23192D01*
X118121Y-22992D02*
X118107Y-23021D01*
X118078Y-23035D01*
X117821Y-23035D01*
X118121Y-22507D02*
X118121Y-22649D01*
X117821Y-22649D01*
X118121Y-22407D02*
X117821Y-22407D01*
X118035Y-22307D01*
X117821Y-22207D01*
X118121Y-22207D01*
X117821Y-22092D02*
X117821Y-21907D01*
X117935Y-22007D01*
X117935Y-21964D01*
X117950Y-21935D01*
X117964Y-21921D01*
X117992Y-21907D01*
X118064Y-21907D01*
X118092Y-21921D01*
X118107Y-21935D01*
X118121Y-21964D01*
X118121Y-22050D01*
X118107Y-22078D01*
X118092Y-22092D01*
X118121Y-21764D02*
X118121Y-21707D01*
X118107Y-21678D01*
X118092Y-21664D01*
X118050Y-21635D01*
X117992Y-21621D01*
X117878Y-21621D01*
X117850Y-21635D01*
X117835Y-21650D01*
X117821Y-21678D01*
X117821Y-21735D01*
X117835Y-21764D01*
X117850Y-21778D01*
X117878Y-21792D01*
X117950Y-21792D01*
X117978Y-21778D01*
X117992Y-21764D01*
X118007Y-21735D01*
X118007Y-21678D01*
X117992Y-21650D01*
X117978Y-21635D01*
X117950Y-21621D01*
X118121Y-21478D02*
X118121Y-21421D01*
X118107Y-21392D01*
X118092Y-21378D01*
X118050Y-21350D01*
X117992Y-21335D01*
X117878Y-21335D01*
X117850Y-21350D01*
X117835Y-21364D01*
X117821Y-21392D01*
X117821Y-21450D01*
X117835Y-21478D01*
X117850Y-21492D01*
X117878Y-21507D01*
X117950Y-21507D01*
X117978Y-21492D01*
X117992Y-21478D01*
X118007Y-21450D01*
X118007Y-21392D01*
X117992Y-21364D01*
X117978Y-21350D01*
X117950Y-21335D01*
G54D14*
X124850Y-30750D02*
X124600Y-30750D01*
X124850Y-30250D02*
X124600Y-30250D01*
X124850Y-30250D02*
X124850Y-30750D01*
X124600Y-30500D02*
G75*
G03X124600Y-30500I-2100J0D01*
G74*
G01*
X125500Y-24000D02*
X125100Y-24000D01*
X125100Y-24000D02*
X125100Y-24400D01*
X125100Y-24400D02*
X121900Y-24400D01*
X121900Y-24400D02*
X121900Y-23600D01*
X121900Y-23600D02*
X125100Y-23600D01*
X125100Y-23600D02*
X125100Y-24000D01*
X121500Y-24000D02*
X121900Y-24000D01*
X119000Y-23000D02*
X119000Y-22600D01*
X119000Y-22600D02*
X118600Y-22600D01*
X118600Y-22600D02*
X118600Y-19400D01*
X118600Y-19400D02*
X119400Y-19400D01*
X119400Y-19400D02*
X119400Y-22600D01*
X119400Y-22600D02*
X119000Y-22600D01*
X119000Y-19000D02*
X119000Y-19400D01*
X125250Y-19000D02*
X125250Y-19400D01*
X125250Y-19400D02*
X125650Y-19400D01*
X125650Y-19400D02*
X125650Y-22600D01*
X125650Y-22600D02*
X124850Y-22600D01*
X124850Y-22600D02*
X124850Y-19400D01*
X124850Y-19400D02*
X125250Y-19400D01*
X125250Y-23000D02*
X125250Y-22600D01*
X120800Y-21500D02*
G75*
G03X120500Y-21200I-300J0D01*
G74*
G01*
X120500Y-21800D02*
G75*
G03X120800Y-21500I0J300D01*
G74*
G01*
X120500Y-20500D02*
X124500Y-20500D01*
X124500Y-20500D02*
X124500Y-22500D01*
X124500Y-22500D02*
X120500Y-22500D01*
X120500Y-22500D02*
X120500Y-20500D01*
X118500Y-26500D02*
X119500Y-26500D01*
X118500Y-25500D02*
X119500Y-25500D01*
X118500Y-26500D02*
X118500Y-25500D01*
X119500Y-25500D02*
X119500Y-26500D01*
X117500Y-26500D02*
X118500Y-26500D01*
X117500Y-25500D02*
X118500Y-25500D01*
X117500Y-26500D02*
X117500Y-25500D01*
X118500Y-25500D02*
X118500Y-26500D01*
X121500Y-19500D02*
X122500Y-19500D01*
X121500Y-18500D02*
X122500Y-18500D01*
X121500Y-19500D02*
X121500Y-18500D01*
X122500Y-18500D02*
X122500Y-19500D01*
X120500Y-19500D02*
X121500Y-19500D01*
X120500Y-18500D02*
X121500Y-18500D01*
X120500Y-19500D02*
X120500Y-18500D01*
X121500Y-18500D02*
X121500Y-19500D01*
X122500Y-26500D02*
X123500Y-26500D01*
X122500Y-25500D02*
X123500Y-25500D01*
X122500Y-26500D02*
X122500Y-25500D01*
X123500Y-25500D02*
X123500Y-26500D01*
X121500Y-26500D02*
X122500Y-26500D01*
X121500Y-25500D02*
X122500Y-25500D01*
X121500Y-26500D02*
X121500Y-25500D01*
X122500Y-25500D02*
X122500Y-26500D01*
X122500Y-19500D02*
X123500Y-19500D01*
X122500Y-18500D02*
X123500Y-18500D01*
X122500Y-19500D02*
X122500Y-18500D01*
X123500Y-18500D02*
X123500Y-19500D01*
X124400Y-25400D02*
X121600Y-25400D01*
X121600Y-25400D02*
X121600Y-24600D01*
X121600Y-24600D02*
X124400Y-24600D01*
X124400Y-24600D02*
X124400Y-25400D01*
X120400Y-20100D02*
X120400Y-22900D01*
X120400Y-22900D02*
X119600Y-22900D01*
X119600Y-22900D02*
X119600Y-20100D01*
X119600Y-20100D02*
X120400Y-20100D01*
X120400Y-25400D02*
X117600Y-25400D01*
X117600Y-25400D02*
X117600Y-24600D01*
X117600Y-24600D02*
X120400Y-24600D01*
X120400Y-24600D02*
X120400Y-25400D01*
G54D15*
G36*
X125273Y-26457D02*
X125281Y-26453D01*
X125300Y-26441D01*
X125326Y-26424D01*
X125357Y-26403D01*
X125388Y-26382D01*
X125414Y-26365D01*
X125432Y-26353D01*
X125439Y-26349D01*
X125443Y-26350D01*
X125458Y-26358D01*
X125480Y-26369D01*
X125492Y-26375D01*
X125512Y-26384D01*
X125522Y-26386D01*
X125523Y-26383D01*
X125531Y-26368D01*
X125542Y-26342D01*
X125557Y-26308D01*
X125574Y-26268D01*
X125592Y-26225D01*
X125610Y-26181D01*
X125628Y-26139D01*
X125643Y-26101D01*
X125656Y-26071D01*
X125664Y-26049D01*
X125667Y-26040D01*
X125666Y-26038D01*
X125656Y-26029D01*
X125639Y-26016D01*
X125601Y-25985D01*
X125565Y-25939D01*
X125542Y-25887D01*
X125535Y-25829D01*
X125541Y-25776D01*
X125562Y-25725D01*
X125598Y-25678D01*
X125642Y-25644D01*
X125693Y-25622D01*
X125750Y-25615D01*
X125805Y-25621D01*
X125857Y-25642D01*
X125904Y-25677D01*
X125923Y-25700D01*
X125950Y-25747D01*
X125966Y-25797D01*
X125967Y-25809D01*
X125965Y-25865D01*
X125949Y-25918D01*
X125920Y-25965D01*
X125879Y-26004D01*
X125874Y-26008D01*
X125855Y-26022D01*
X125843Y-26031D01*
X125833Y-26039D01*
X125903Y-26209D01*
X125914Y-26236D01*
X125934Y-26282D01*
X125951Y-26322D01*
X125964Y-26354D01*
X125974Y-26375D01*
X125978Y-26384D01*
X125978Y-26384D01*
X125984Y-26385D01*
X125997Y-26380D01*
X126021Y-26369D01*
X126037Y-26361D01*
X126055Y-26352D01*
X126063Y-26349D01*
X126070Y-26353D01*
X126087Y-26364D01*
X126112Y-26381D01*
X126142Y-26401D01*
X126171Y-26421D01*
X126198Y-26439D01*
X126217Y-26451D01*
X126227Y-26456D01*
X126228Y-26456D01*
X126236Y-26451D01*
X126252Y-26439D01*
X126275Y-26417D01*
X126307Y-26385D01*
X126312Y-26380D01*
X126339Y-26352D01*
X126361Y-26329D01*
X126376Y-26313D01*
X126381Y-26306D01*
X126381Y-26306D01*
X126376Y-26296D01*
X126364Y-26277D01*
X126346Y-26250D01*
X126325Y-26219D01*
X126269Y-26137D01*
X126300Y-26060D01*
X126309Y-26037D01*
X126321Y-26008D01*
X126330Y-25988D01*
X126335Y-25979D01*
X126343Y-25976D01*
X126364Y-25971D01*
X126395Y-25964D01*
X126431Y-25958D01*
X126466Y-25951D01*
X126497Y-25945D01*
X126520Y-25941D01*
X126530Y-25939D01*
X126532Y-25937D01*
X126534Y-25932D01*
X126536Y-25922D01*
X126536Y-25903D01*
X126537Y-25873D01*
X126537Y-25829D01*
X126537Y-25825D01*
X126536Y-25783D01*
X126536Y-25750D01*
X126535Y-25729D01*
X126533Y-25721D01*
X126533Y-25721D01*
X126523Y-25718D01*
X126501Y-25714D01*
X126470Y-25707D01*
X126432Y-25700D01*
X126430Y-25700D01*
X126393Y-25693D01*
X126362Y-25686D01*
X126340Y-25681D01*
X126331Y-25678D01*
X126329Y-25676D01*
X126321Y-25661D01*
X126310Y-25638D01*
X126298Y-25610D01*
X126286Y-25581D01*
X126275Y-25554D01*
X126268Y-25535D01*
X126266Y-25526D01*
X126266Y-25526D01*
X126272Y-25517D01*
X126285Y-25497D01*
X126303Y-25471D01*
X126325Y-25439D01*
X126326Y-25436D01*
X126348Y-25405D01*
X126365Y-25378D01*
X126377Y-25359D01*
X126381Y-25351D01*
X126381Y-25350D01*
X126374Y-25341D01*
X126358Y-25323D01*
X126335Y-25299D01*
X126307Y-25271D01*
X126298Y-25263D01*
X126268Y-25233D01*
X126247Y-25213D01*
X126233Y-25203D01*
X126227Y-25200D01*
X126227Y-25201D01*
X126217Y-25206D01*
X126197Y-25219D01*
X126170Y-25238D01*
X126138Y-25259D01*
X126136Y-25261D01*
X126105Y-25282D01*
X126079Y-25300D01*
X126060Y-25312D01*
X126052Y-25317D01*
X126050Y-25317D01*
X126038Y-25313D01*
X126015Y-25306D01*
X125988Y-25295D01*
X125959Y-25283D01*
X125932Y-25272D01*
X125912Y-25263D01*
X125903Y-25258D01*
X125903Y-25257D01*
X125899Y-25246D01*
X125894Y-25222D01*
X125887Y-25190D01*
X125880Y-25151D01*
X125879Y-25145D01*
X125872Y-25108D01*
X125866Y-25077D01*
X125861Y-25055D01*
X125859Y-25046D01*
X125854Y-25045D01*
X125835Y-25044D01*
X125807Y-25043D01*
X125773Y-25043D01*
X125738Y-25043D01*
X125704Y-25044D01*
X125674Y-25045D01*
X125653Y-25046D01*
X125644Y-25048D01*
X125643Y-25049D01*
X125640Y-25060D01*
X125635Y-25084D01*
X125628Y-25116D01*
X125621Y-25155D01*
X125620Y-25162D01*
X125613Y-25199D01*
X125606Y-25230D01*
X125602Y-25251D01*
X125599Y-25259D01*
X125596Y-25261D01*
X125581Y-25268D01*
X125556Y-25278D01*
X125524Y-25291D01*
X125452Y-25320D01*
X125364Y-25259D01*
X125356Y-25254D01*
X125324Y-25232D01*
X125298Y-25215D01*
X125280Y-25203D01*
X125272Y-25199D01*
X125272Y-25199D01*
X125263Y-25207D01*
X125245Y-25223D01*
X125221Y-25247D01*
X125194Y-25274D01*
X125173Y-25295D01*
X125149Y-25320D01*
X125133Y-25336D01*
X125125Y-25347D01*
X125122Y-25354D01*
X125123Y-25358D01*
X125128Y-25367D01*
X125141Y-25386D01*
X125159Y-25413D01*
X125181Y-25444D01*
X125199Y-25471D01*
X125218Y-25500D01*
X125230Y-25521D01*
X125235Y-25532D01*
X125234Y-25536D01*
X125227Y-25553D01*
X125217Y-25580D01*
X125204Y-25611D01*
X125173Y-25681D01*
X125127Y-25689D01*
X125099Y-25695D01*
X125060Y-25702D01*
X125023Y-25709D01*
X124965Y-25721D01*
X124963Y-25933D01*
X124972Y-25937D01*
X124981Y-25940D01*
X125002Y-25944D01*
X125033Y-25950D01*
X125069Y-25957D01*
X125100Y-25963D01*
X125131Y-25969D01*
X125153Y-25973D01*
X125163Y-25975D01*
X125166Y-25979D01*
X125174Y-25994D01*
X125185Y-26018D01*
X125197Y-26047D01*
X125209Y-26076D01*
X125220Y-26104D01*
X125228Y-26125D01*
X125231Y-26136D01*
X125227Y-26144D01*
X125215Y-26162D01*
X125198Y-26188D01*
X125177Y-26219D01*
X125155Y-26250D01*
X125138Y-26277D01*
X125125Y-26296D01*
X125120Y-26304D01*
X125123Y-26310D01*
X125135Y-26325D01*
X125158Y-26349D01*
X125193Y-26384D01*
X125199Y-26389D01*
X125226Y-26416D01*
X125250Y-26437D01*
X125266Y-26452D01*
X125273Y-26457D01*
X125273Y-26457D01*
G37*
G54D14*
X118500Y-18500D02*
X118500Y-20500D01*
X118500Y-20500D02*
X117500Y-20500D01*
X117500Y-20500D02*
X117500Y-18500D01*
X117500Y-18500D02*
X118500Y-18500D01*
G54D13*
X120521Y-28321D02*
X120521Y-28564D01*
X120535Y-28592D01*
X120550Y-28607D01*
X120578Y-28621D01*
X120635Y-28621D01*
X120664Y-28607D01*
X120678Y-28592D01*
X120692Y-28564D01*
X120692Y-28321D01*
X120992Y-28621D02*
X120821Y-28621D01*
X120907Y-28621D02*
X120907Y-28321D01*
X120878Y-28364D01*
X120850Y-28392D01*
X120821Y-28407D01*
X123242Y-28121D02*
X123100Y-28121D01*
X123100Y-27821D01*
X123342Y-28121D02*
X123342Y-27821D01*
X123442Y-28035D01*
X123542Y-27821D01*
X123542Y-28121D01*
X123657Y-27821D02*
X123842Y-27821D01*
X123742Y-27935D01*
X123785Y-27935D01*
X123814Y-27950D01*
X123828Y-27964D01*
X123842Y-27992D01*
X123842Y-28064D01*
X123828Y-28092D01*
X123814Y-28107D01*
X123785Y-28121D01*
X123700Y-28121D01*
X123671Y-28107D01*
X123657Y-28092D01*
X123985Y-28121D02*
X124042Y-28121D01*
X124071Y-28107D01*
X124085Y-28092D01*
X124114Y-28050D01*
X124128Y-27992D01*
X124128Y-27878D01*
X124114Y-27850D01*
X124100Y-27835D01*
X124071Y-27821D01*
X124014Y-27821D01*
X123985Y-27835D01*
X123971Y-27850D01*
X123957Y-27878D01*
X123957Y-27950D01*
X123971Y-27978D01*
X123985Y-27992D01*
X124014Y-28007D01*
X124071Y-28007D01*
X124100Y-27992D01*
X124114Y-27978D01*
X124128Y-27950D01*
X124271Y-28121D02*
X124328Y-28121D01*
X124357Y-28107D01*
X124371Y-28092D01*
X124400Y-28050D01*
X124414Y-27992D01*
X124414Y-27878D01*
X124400Y-27850D01*
X124385Y-27835D01*
X124357Y-27821D01*
X124300Y-27821D01*
X124271Y-27835D01*
X124257Y-27850D01*
X124242Y-27878D01*
X124242Y-27950D01*
X124257Y-27978D01*
X124271Y-27992D01*
X124300Y-28007D01*
X124357Y-28007D01*
X124385Y-27992D01*
X124400Y-27978D01*
X124414Y-27950D01*
X124250Y-24121D02*
X124150Y-23978D01*
X124078Y-24121D02*
X124078Y-23821D01*
X124192Y-23821D01*
X124221Y-23835D01*
X124235Y-23850D01*
X124250Y-23878D01*
X124250Y-23921D01*
X124235Y-23950D01*
X124221Y-23964D01*
X124192Y-23978D01*
X124078Y-23978D01*
X124364Y-23850D02*
X124378Y-23835D01*
X124407Y-23821D01*
X124478Y-23821D01*
X124507Y-23835D01*
X124521Y-23850D01*
X124535Y-23878D01*
X124535Y-23907D01*
X124521Y-23950D01*
X124350Y-24121D01*
X124535Y-24121D01*
X122664Y-24121D02*
X122492Y-24121D01*
X122578Y-24121D02*
X122578Y-23821D01*
X122550Y-23864D01*
X122521Y-23892D01*
X122492Y-23907D01*
X122792Y-24121D02*
X122792Y-23821D01*
X122821Y-24007D02*
X122907Y-24121D01*
X122907Y-23921D02*
X122792Y-24035D01*
X119121Y-21850D02*
X118978Y-21950D01*
X119121Y-22021D02*
X118821Y-22021D01*
X118821Y-21907D01*
X118835Y-21878D01*
X118850Y-21864D01*
X118878Y-21850D01*
X118921Y-21850D01*
X118950Y-21864D01*
X118964Y-21878D01*
X118978Y-21907D01*
X118978Y-22021D01*
X118821Y-21750D02*
X118821Y-21564D01*
X118935Y-21664D01*
X118935Y-21621D01*
X118950Y-21592D01*
X118964Y-21578D01*
X118992Y-21564D01*
X119064Y-21564D01*
X119092Y-21578D01*
X119107Y-21592D01*
X119121Y-21621D01*
X119121Y-21707D01*
X119107Y-21735D01*
X119092Y-21750D01*
X118821Y-20407D02*
X118821Y-20464D01*
X118835Y-20492D01*
X118850Y-20507D01*
X118892Y-20535D01*
X118950Y-20549D01*
X119064Y-20549D01*
X119092Y-20535D01*
X119107Y-20521D01*
X119121Y-20492D01*
X119121Y-20435D01*
X119107Y-20407D01*
X119092Y-20392D01*
X119064Y-20378D01*
X118992Y-20378D01*
X118964Y-20392D01*
X118950Y-20407D01*
X118935Y-20435D01*
X118935Y-20492D01*
X118950Y-20521D01*
X118964Y-20535D01*
X118992Y-20549D01*
X119121Y-20249D02*
X118821Y-20249D01*
X119007Y-20221D02*
X119121Y-20135D01*
X118921Y-20135D02*
X119035Y-20249D01*
X118950Y-19964D02*
X118935Y-19992D01*
X118921Y-20007D01*
X118892Y-20021D01*
X118878Y-20021D01*
X118850Y-20007D01*
X118835Y-19992D01*
X118821Y-19964D01*
X118821Y-19907D01*
X118835Y-19878D01*
X118850Y-19864D01*
X118878Y-19850D01*
X118892Y-19850D01*
X118921Y-19864D01*
X118935Y-19878D01*
X118950Y-19907D01*
X118950Y-19964D01*
X118964Y-19992D01*
X118978Y-20007D01*
X119007Y-20021D01*
X119064Y-20021D01*
X119092Y-20007D01*
X119107Y-19992D01*
X119121Y-19964D01*
X119121Y-19907D01*
X119107Y-19878D01*
X119092Y-19864D01*
X119064Y-19850D01*
X119007Y-19850D01*
X118978Y-19864D01*
X118964Y-19878D01*
X118950Y-19907D01*
X125371Y-20250D02*
X125228Y-20350D01*
X125371Y-20421D02*
X125071Y-20421D01*
X125071Y-20307D01*
X125085Y-20278D01*
X125100Y-20264D01*
X125128Y-20250D01*
X125171Y-20250D01*
X125200Y-20264D01*
X125214Y-20278D01*
X125228Y-20307D01*
X125228Y-20421D01*
X125371Y-19964D02*
X125371Y-20135D01*
X125371Y-20050D02*
X125071Y-20050D01*
X125114Y-20078D01*
X125142Y-20107D01*
X125157Y-20135D01*
X125371Y-21835D02*
X125371Y-22007D01*
X125371Y-21921D02*
X125071Y-21921D01*
X125114Y-21949D01*
X125142Y-21978D01*
X125157Y-22007D01*
X125371Y-21707D02*
X125071Y-21707D01*
X125257Y-21678D02*
X125371Y-21592D01*
X125171Y-21592D02*
X125285Y-21707D01*
X121071Y-21728D02*
X121314Y-21728D01*
X121342Y-21714D01*
X121357Y-21700D01*
X121371Y-21671D01*
X121371Y-21614D01*
X121357Y-21585D01*
X121342Y-21571D01*
X121314Y-21557D01*
X121071Y-21557D01*
X121100Y-21428D02*
X121085Y-21414D01*
X121071Y-21385D01*
X121071Y-21314D01*
X121085Y-21285D01*
X121100Y-21271D01*
X121128Y-21257D01*
X121157Y-21257D01*
X121200Y-21271D01*
X121371Y-21442D01*
X121371Y-21257D01*
X122535Y-21321D02*
X122592Y-21321D01*
X122621Y-21335D01*
X122650Y-21364D01*
X122664Y-21421D01*
X122664Y-21521D01*
X122650Y-21578D01*
X122621Y-21607D01*
X122592Y-21621D01*
X122535Y-21621D01*
X122507Y-21607D01*
X122478Y-21578D01*
X122464Y-21521D01*
X122464Y-21421D01*
X122478Y-21364D01*
X122507Y-21335D01*
X122535Y-21321D01*
X122792Y-21621D02*
X122792Y-21321D01*
X122907Y-21321D01*
X122935Y-21335D01*
X122950Y-21350D01*
X122964Y-21378D01*
X122964Y-21421D01*
X122950Y-21450D01*
X122935Y-21464D01*
X122907Y-21478D01*
X122792Y-21478D01*
X123150Y-21321D02*
X123178Y-21321D01*
X123207Y-21335D01*
X123221Y-21350D01*
X123235Y-21378D01*
X123250Y-21435D01*
X123250Y-21507D01*
X123235Y-21564D01*
X123221Y-21592D01*
X123207Y-21607D01*
X123178Y-21621D01*
X123150Y-21621D01*
X123121Y-21607D01*
X123107Y-21592D01*
X123092Y-21564D01*
X123078Y-21507D01*
X123078Y-21435D01*
X123092Y-21378D01*
X123107Y-21350D01*
X123121Y-21335D01*
X123150Y-21321D01*
X123350Y-21321D02*
X123550Y-21321D01*
X123421Y-21621D01*
G54D12*
X122958Y-25227D02*
X122946Y-25239D01*
X122910Y-25251D01*
X122886Y-25251D01*
X122851Y-25239D01*
X122827Y-25215D01*
X122815Y-25191D01*
X122803Y-25144D01*
X122803Y-25108D01*
X122815Y-25060D01*
X122827Y-25036D01*
X122851Y-25013D01*
X122886Y-25001D01*
X122910Y-25001D01*
X122946Y-25013D01*
X122958Y-25025D01*
X123041Y-25001D02*
X123196Y-25001D01*
X123113Y-25096D01*
X123148Y-25096D01*
X123172Y-25108D01*
X123184Y-25120D01*
X123196Y-25144D01*
X123196Y-25203D01*
X123184Y-25227D01*
X123172Y-25239D01*
X123148Y-25251D01*
X123077Y-25251D01*
X123053Y-25239D01*
X123041Y-25227D01*
X123982Y-25851D02*
X123839Y-25851D01*
X123910Y-25851D02*
X123910Y-25601D01*
X123886Y-25636D01*
X123863Y-25660D01*
X123839Y-25672D01*
X124136Y-25601D02*
X124160Y-25601D01*
X124184Y-25613D01*
X124196Y-25625D01*
X124208Y-25648D01*
X124220Y-25696D01*
X124220Y-25755D01*
X124208Y-25803D01*
X124196Y-25827D01*
X124184Y-25839D01*
X124160Y-25851D01*
X124136Y-25851D01*
X124113Y-25839D01*
X124101Y-25827D01*
X124089Y-25803D01*
X124077Y-25755D01*
X124077Y-25696D01*
X124089Y-25648D01*
X124101Y-25625D01*
X124113Y-25613D01*
X124136Y-25601D01*
X124327Y-25684D02*
X124327Y-25851D01*
X124327Y-25708D02*
X124339Y-25696D01*
X124363Y-25684D01*
X124398Y-25684D01*
X124422Y-25696D01*
X124434Y-25720D01*
X124434Y-25851D01*
X124636Y-25720D02*
X124553Y-25720D01*
X124553Y-25851D02*
X124553Y-25601D01*
X124672Y-25601D01*
X120227Y-21541D02*
X120239Y-21553D01*
X120251Y-21589D01*
X120251Y-21613D01*
X120239Y-21648D01*
X120215Y-21672D01*
X120191Y-21684D01*
X120144Y-21696D01*
X120108Y-21696D01*
X120060Y-21684D01*
X120036Y-21672D01*
X120013Y-21648D01*
X120001Y-21613D01*
X120001Y-21589D01*
X120013Y-21553D01*
X120025Y-21541D01*
X120025Y-21446D02*
X120013Y-21434D01*
X120001Y-21410D01*
X120001Y-21351D01*
X120013Y-21327D01*
X120025Y-21315D01*
X120048Y-21303D01*
X120072Y-21303D01*
X120108Y-21315D01*
X120251Y-21458D01*
X120251Y-21303D01*
X119651Y-21910D02*
X119651Y-21886D01*
X119663Y-21863D01*
X119675Y-21851D01*
X119698Y-21839D01*
X119746Y-21827D01*
X119805Y-21827D01*
X119853Y-21839D01*
X119877Y-21851D01*
X119889Y-21863D01*
X119901Y-21886D01*
X119901Y-21910D01*
X119889Y-21934D01*
X119877Y-21946D01*
X119853Y-21958D01*
X119805Y-21970D01*
X119746Y-21970D01*
X119698Y-21958D01*
X119675Y-21946D01*
X119663Y-21934D01*
X119651Y-21910D01*
X119877Y-21720D02*
X119889Y-21708D01*
X119901Y-21720D01*
X119889Y-21732D01*
X119877Y-21720D01*
X119901Y-21720D01*
X119901Y-21470D02*
X119901Y-21613D01*
X119901Y-21541D02*
X119651Y-21541D01*
X119686Y-21565D01*
X119710Y-21589D01*
X119722Y-21613D01*
X119734Y-21255D02*
X119901Y-21255D01*
X119734Y-21363D02*
X119865Y-21363D01*
X119889Y-21351D01*
X119901Y-21327D01*
X119901Y-21291D01*
X119889Y-21267D01*
X119877Y-21255D01*
X119770Y-21053D02*
X119770Y-21136D01*
X119901Y-21136D02*
X119651Y-21136D01*
X119651Y-21017D01*
X118958Y-25227D02*
X118946Y-25239D01*
X118910Y-25251D01*
X118886Y-25251D01*
X118851Y-25239D01*
X118827Y-25215D01*
X118815Y-25191D01*
X118803Y-25144D01*
X118803Y-25108D01*
X118815Y-25060D01*
X118827Y-25036D01*
X118851Y-25013D01*
X118886Y-25001D01*
X118910Y-25001D01*
X118946Y-25013D01*
X118958Y-25025D01*
X119196Y-25251D02*
X119053Y-25251D01*
X119125Y-25251D02*
X119125Y-25001D01*
X119101Y-25036D01*
X119077Y-25060D01*
X119053Y-25072D01*
X120089Y-25601D02*
X120113Y-25601D01*
X120136Y-25613D01*
X120148Y-25625D01*
X120160Y-25648D01*
X120172Y-25696D01*
X120172Y-25755D01*
X120160Y-25803D01*
X120148Y-25827D01*
X120136Y-25839D01*
X120113Y-25851D01*
X120089Y-25851D01*
X120065Y-25839D01*
X120053Y-25827D01*
X120041Y-25803D01*
X120029Y-25755D01*
X120029Y-25696D01*
X120041Y-25648D01*
X120053Y-25625D01*
X120065Y-25613D01*
X120089Y-25601D01*
X120279Y-25827D02*
X120291Y-25839D01*
X120279Y-25851D01*
X120267Y-25839D01*
X120279Y-25827D01*
X120279Y-25851D01*
X120529Y-25851D02*
X120386Y-25851D01*
X120458Y-25851D02*
X120458Y-25601D01*
X120434Y-25636D01*
X120410Y-25660D01*
X120386Y-25672D01*
X120744Y-25684D02*
X120744Y-25851D01*
X120636Y-25684D02*
X120636Y-25815D01*
X120648Y-25839D01*
X120672Y-25851D01*
X120708Y-25851D01*
X120732Y-25839D01*
X120744Y-25827D01*
X120946Y-25720D02*
X120863Y-25720D01*
X120863Y-25851D02*
X120863Y-25601D01*
X120982Y-25601D01*
M02*
