M48
;DRILL file {Pcbnew (2013-07-07 BZR 4022)-stable} date Sun 21 May 2017 12:44:12 AM CDT
;FORMAT={-:-/ absolute / inch / decimal}
FMAT,2
INCH,TZ
T1C0.032
T2C0.040
%
G90
G05
M72
T1
X11.8Y-2.5
X11.9Y-1.9
X11.9Y-2.3
X12.Y-2.05
X12.Y-2.25
X12.Y-2.5
X12.1Y-2.
X12.1Y-2.3
X12.15Y-2.4
X12.2Y-2.
X12.2Y-2.3
X12.2Y-2.5
X12.3Y-2.
X12.3Y-2.3
X12.4Y-2.
X12.4Y-2.3
X12.4Y-2.5
X12.525Y-1.9
X12.525Y-2.3
X12.55Y-2.4
T2
X11.8Y-1.9
X11.8Y-2.
X11.8Y-2.6
X11.9Y-2.6
X12.1Y-1.9
X12.2Y-1.9
X12.2Y-2.6
X12.2Y-3.
X12.2Y-3.1
X12.3Y-1.9
X12.3Y-2.6
X12.3Y-3.
X12.3Y-3.1
T0
M30
