G04 (created by PCBNEW (2013-07-07 BZR 4022)-stable) date Sun 21 May 2017 12:44:06 AM CDT*
%MOIN*%
G04 Gerber Fmt 3.4, Leading zero omitted, Abs format*
%FSLAX34Y34*%
G01*
G70*
G90*
G04 APERTURE LIST*
%ADD10C,0.00590551*%
%ADD11R,0.059X0.059*%
%ADD12C,0.059*%
%ADD13O,0.059X0.059*%
%ADD14R,0.069X0.069*%
%ADD15C,0.069*%
%ADD16C,0.03*%
%ADD17C,0.02*%
G04 APERTURE END LIST*
G54D10*
G54D11*
X123000Y-30000D03*
G54D12*
X122000Y-31000D03*
X123000Y-31000D03*
X122000Y-30000D03*
G54D13*
X125500Y-24000D03*
X121500Y-24000D03*
X119000Y-23000D03*
X119000Y-19000D03*
X125250Y-19000D03*
X125250Y-23000D03*
G54D11*
X121000Y-23000D03*
G54D13*
X122000Y-23000D03*
X123000Y-23000D03*
X124000Y-23000D03*
X124000Y-20000D03*
X123000Y-20000D03*
X121000Y-20000D03*
X122000Y-20000D03*
G54D14*
X119000Y-26000D03*
X118000Y-26000D03*
X122000Y-19000D03*
X121000Y-19000D03*
X123000Y-26000D03*
X122000Y-26000D03*
X123000Y-19000D03*
G54D12*
X124000Y-25000D03*
X122000Y-25000D03*
X120000Y-20500D03*
X120000Y-22500D03*
X120000Y-25000D03*
X118000Y-25000D03*
G54D14*
X118000Y-19000D03*
G54D15*
X118000Y-20000D03*
G54D16*
X119000Y-26000D02*
X120000Y-25000D01*
X119000Y-26000D02*
X120000Y-26000D01*
X121500Y-31000D02*
X122000Y-31000D01*
X121500Y-31000D02*
X121250Y-30750D01*
X121250Y-30750D02*
X121250Y-28000D01*
X121250Y-28000D02*
X121250Y-27500D01*
X121250Y-27500D02*
X121250Y-27250D01*
X121250Y-27250D02*
X120000Y-26000D01*
G54D17*
X122000Y-19000D02*
X122000Y-20000D01*
X122000Y-20000D02*
X122000Y-20500D01*
X120250Y-20750D02*
X120000Y-20500D01*
X121750Y-20750D02*
X120250Y-20750D01*
X122000Y-20500D02*
X121750Y-20750D01*
X123000Y-19000D02*
X124000Y-19000D01*
X123000Y-20000D02*
X124000Y-19000D01*
X124000Y-19000D02*
X125250Y-19000D01*
X125250Y-19000D02*
X125250Y-22000D01*
X125250Y-22000D02*
X126000Y-22750D01*
X126000Y-22750D02*
X126000Y-23500D01*
X126000Y-23500D02*
X125500Y-24000D01*
X124000Y-25000D02*
X124500Y-25000D01*
X124500Y-25000D02*
X125500Y-24000D01*
X123000Y-26000D02*
X123000Y-30000D01*
X125250Y-23000D02*
X124250Y-24000D01*
X124250Y-24000D02*
X123000Y-24000D01*
X123000Y-23000D02*
X123000Y-24000D01*
X123000Y-24000D02*
X123000Y-26000D01*
G54D16*
X118000Y-26000D02*
X118000Y-26500D01*
X123000Y-31750D02*
X123000Y-31000D01*
X122750Y-32000D02*
X123000Y-31750D01*
X121250Y-32000D02*
X122750Y-32000D01*
X120750Y-31500D02*
X121250Y-32000D01*
X120750Y-27500D02*
X120750Y-31500D01*
X120000Y-26750D02*
X120750Y-27500D01*
X118250Y-26750D02*
X120000Y-26750D01*
X118000Y-26500D02*
X118250Y-26750D01*
X118000Y-26000D02*
X118000Y-25000D01*
G54D17*
X121000Y-19000D02*
X120250Y-19000D01*
X120250Y-19000D02*
X119000Y-20250D01*
X119000Y-20250D02*
X119000Y-21250D01*
X119000Y-21250D02*
X119000Y-21500D01*
X119000Y-21500D02*
X120000Y-22500D01*
X120000Y-22500D02*
X120500Y-22000D01*
X120500Y-22000D02*
X122750Y-22000D01*
X122750Y-22000D02*
X123500Y-22000D01*
X123500Y-22000D02*
X124000Y-22500D01*
X124000Y-22500D02*
X124000Y-23000D01*
X122000Y-26000D02*
X122000Y-30000D01*
X121500Y-24000D02*
X121500Y-24500D01*
X121500Y-24500D02*
X122000Y-25000D01*
X121500Y-24000D02*
X120000Y-24000D01*
X120000Y-24000D02*
X119000Y-23000D01*
X122000Y-23000D02*
X122000Y-23500D01*
X122000Y-23500D02*
X121500Y-24000D01*
M02*
