G04 (created by PCBNEW (2013-07-07 BZR 4022)-stable) date Sun 21 May 2017 12:44:06 AM CDT*
%MOIN*%
G04 Gerber Fmt 3.4, Leading zero omitted, Abs format*
%FSLAX34Y34*%
G01*
G70*
G90*
G04 APERTURE LIST*
%ADD10C,0.00590551*%
%ADD11R,0.059X0.059*%
%ADD12C,0.059*%
%ADD13O,0.059X0.059*%
%ADD14R,0.069X0.069*%
%ADD15C,0.069*%
%ADD16C,0.01*%
G04 APERTURE END LIST*
G54D10*
G54D11*
X123000Y-30000D03*
G54D12*
X122000Y-31000D03*
X123000Y-31000D03*
X122000Y-30000D03*
G54D13*
X125500Y-24000D03*
X121500Y-24000D03*
X119000Y-23000D03*
X119000Y-19000D03*
X125250Y-19000D03*
X125250Y-23000D03*
G54D11*
X121000Y-23000D03*
G54D13*
X122000Y-23000D03*
X123000Y-23000D03*
X124000Y-23000D03*
X124000Y-20000D03*
X123000Y-20000D03*
X121000Y-20000D03*
X122000Y-20000D03*
G54D14*
X119000Y-26000D03*
X118000Y-26000D03*
X122000Y-19000D03*
X121000Y-19000D03*
X123000Y-26000D03*
X122000Y-26000D03*
X123000Y-19000D03*
G54D12*
X124000Y-25000D03*
X122000Y-25000D03*
X120000Y-20500D03*
X120000Y-22500D03*
X120000Y-25000D03*
X118000Y-25000D03*
G54D14*
X118000Y-19000D03*
G54D15*
X118000Y-20000D03*
G54D10*
G36*
X126700Y-25988D02*
X126462Y-26462D01*
X126055Y-26666D01*
X126055Y-24000D01*
X126014Y-23791D01*
X125896Y-23614D01*
X125719Y-23496D01*
X125538Y-23460D01*
X125635Y-23396D01*
X125753Y-23219D01*
X125795Y-23010D01*
X125795Y-22989D01*
X125795Y-19010D01*
X125795Y-18989D01*
X125753Y-18780D01*
X125635Y-18603D01*
X125458Y-18485D01*
X125250Y-18444D01*
X125041Y-18485D01*
X124864Y-18603D01*
X124746Y-18780D01*
X124705Y-18989D01*
X124705Y-19010D01*
X124746Y-19219D01*
X124864Y-19396D01*
X125041Y-19514D01*
X125250Y-19555D01*
X125458Y-19514D01*
X125635Y-19396D01*
X125753Y-19219D01*
X125795Y-19010D01*
X125795Y-22989D01*
X125753Y-22780D01*
X125635Y-22603D01*
X125458Y-22485D01*
X125250Y-22444D01*
X125041Y-22485D01*
X124864Y-22603D01*
X124746Y-22780D01*
X124705Y-22989D01*
X124705Y-23010D01*
X124746Y-23219D01*
X124864Y-23396D01*
X125041Y-23514D01*
X125205Y-23546D01*
X125103Y-23614D01*
X124985Y-23791D01*
X124944Y-24000D01*
X124985Y-24208D01*
X125103Y-24385D01*
X125280Y-24503D01*
X125489Y-24545D01*
X125510Y-24545D01*
X125719Y-24503D01*
X125896Y-24385D01*
X126014Y-24208D01*
X126055Y-24000D01*
X126055Y-26666D01*
X125988Y-26700D01*
X125488Y-26700D01*
X124962Y-26962D01*
X124700Y-27488D01*
X124700Y-29750D01*
X124700Y-31988D01*
X124555Y-32276D01*
X124555Y-23000D01*
X124555Y-20000D01*
X124514Y-19791D01*
X124396Y-19614D01*
X124219Y-19496D01*
X124010Y-19455D01*
X123989Y-19455D01*
X123780Y-19496D01*
X123603Y-19614D01*
X123500Y-19770D01*
X123396Y-19614D01*
X123366Y-19595D01*
X123394Y-19595D01*
X123486Y-19557D01*
X123556Y-19486D01*
X123594Y-19394D01*
X123595Y-19295D01*
X123595Y-18605D01*
X123557Y-18513D01*
X123486Y-18443D01*
X123394Y-18405D01*
X123295Y-18404D01*
X122605Y-18404D01*
X122513Y-18442D01*
X122500Y-18456D01*
X122486Y-18443D01*
X122394Y-18405D01*
X122295Y-18404D01*
X121605Y-18404D01*
X121513Y-18442D01*
X121500Y-18456D01*
X121486Y-18443D01*
X121394Y-18405D01*
X121295Y-18404D01*
X120605Y-18404D01*
X120513Y-18442D01*
X120443Y-18513D01*
X120405Y-18605D01*
X120404Y-18704D01*
X120404Y-19394D01*
X120442Y-19486D01*
X120513Y-19556D01*
X120605Y-19594D01*
X120633Y-19594D01*
X120603Y-19614D01*
X120485Y-19791D01*
X120444Y-20000D01*
X120485Y-20208D01*
X120603Y-20385D01*
X120780Y-20503D01*
X120989Y-20545D01*
X121010Y-20545D01*
X121219Y-20503D01*
X121396Y-20385D01*
X121500Y-20229D01*
X121603Y-20385D01*
X121780Y-20503D01*
X121989Y-20545D01*
X122010Y-20545D01*
X122219Y-20503D01*
X122396Y-20385D01*
X122500Y-20229D01*
X122603Y-20385D01*
X122780Y-20503D01*
X122989Y-20545D01*
X123010Y-20545D01*
X123219Y-20503D01*
X123396Y-20385D01*
X123500Y-20229D01*
X123603Y-20385D01*
X123780Y-20503D01*
X123989Y-20545D01*
X124010Y-20545D01*
X124219Y-20503D01*
X124396Y-20385D01*
X124514Y-20208D01*
X124555Y-20000D01*
X124555Y-23000D01*
X124514Y-22791D01*
X124396Y-22614D01*
X124219Y-22496D01*
X124010Y-22455D01*
X123989Y-22455D01*
X123780Y-22496D01*
X123603Y-22614D01*
X123500Y-22770D01*
X123396Y-22614D01*
X123219Y-22496D01*
X123010Y-22455D01*
X122989Y-22455D01*
X122780Y-22496D01*
X122603Y-22614D01*
X122500Y-22770D01*
X122396Y-22614D01*
X122219Y-22496D01*
X122010Y-22455D01*
X121989Y-22455D01*
X121780Y-22496D01*
X121603Y-22614D01*
X121545Y-22702D01*
X121545Y-22655D01*
X121507Y-22563D01*
X121436Y-22493D01*
X121344Y-22455D01*
X121245Y-22454D01*
X120655Y-22454D01*
X120563Y-22492D01*
X120544Y-22511D01*
X120545Y-22392D01*
X120545Y-20392D01*
X120462Y-20191D01*
X120309Y-20038D01*
X120108Y-19955D01*
X119892Y-19954D01*
X119691Y-20037D01*
X119538Y-20190D01*
X119528Y-20215D01*
X119528Y-19134D01*
X119528Y-18865D01*
X119436Y-18673D01*
X119278Y-18531D01*
X119134Y-18471D01*
X119050Y-18520D01*
X119050Y-18950D01*
X119480Y-18950D01*
X119528Y-18865D01*
X119528Y-19134D01*
X119480Y-19050D01*
X119050Y-19050D01*
X119050Y-19479D01*
X119134Y-19528D01*
X119278Y-19468D01*
X119436Y-19326D01*
X119528Y-19134D01*
X119528Y-20215D01*
X119455Y-20391D01*
X119454Y-20607D01*
X119537Y-20808D01*
X119690Y-20961D01*
X119891Y-21044D01*
X120107Y-21045D01*
X120308Y-20962D01*
X120461Y-20809D01*
X120544Y-20608D01*
X120545Y-20392D01*
X120545Y-22392D01*
X120462Y-22191D01*
X120309Y-22038D01*
X120108Y-21955D01*
X119892Y-21954D01*
X119691Y-22037D01*
X119538Y-22190D01*
X119455Y-22391D01*
X119454Y-22607D01*
X119537Y-22808D01*
X119690Y-22961D01*
X119891Y-23044D01*
X120107Y-23045D01*
X120308Y-22962D01*
X120454Y-22815D01*
X120454Y-23344D01*
X120492Y-23436D01*
X120563Y-23506D01*
X120655Y-23544D01*
X120754Y-23545D01*
X121208Y-23545D01*
X121103Y-23614D01*
X120985Y-23791D01*
X120944Y-24000D01*
X120985Y-24208D01*
X121103Y-24385D01*
X121280Y-24503D01*
X121489Y-24545D01*
X121510Y-24545D01*
X121719Y-24503D01*
X121896Y-24385D01*
X122014Y-24208D01*
X122055Y-24000D01*
X122014Y-23791D01*
X121896Y-23614D01*
X121719Y-23496D01*
X121510Y-23455D01*
X121489Y-23455D01*
X121488Y-23455D01*
X121506Y-23436D01*
X121544Y-23344D01*
X121544Y-23297D01*
X121603Y-23385D01*
X121780Y-23503D01*
X121989Y-23545D01*
X122010Y-23545D01*
X122219Y-23503D01*
X122396Y-23385D01*
X122500Y-23229D01*
X122603Y-23385D01*
X122780Y-23503D01*
X122989Y-23545D01*
X123010Y-23545D01*
X123219Y-23503D01*
X123396Y-23385D01*
X123500Y-23229D01*
X123603Y-23385D01*
X123780Y-23503D01*
X123989Y-23545D01*
X124010Y-23545D01*
X124219Y-23503D01*
X124396Y-23385D01*
X124514Y-23208D01*
X124555Y-23000D01*
X124555Y-32276D01*
X124545Y-32298D01*
X124545Y-24892D01*
X124462Y-24691D01*
X124309Y-24538D01*
X124108Y-24455D01*
X123892Y-24454D01*
X123691Y-24537D01*
X123538Y-24690D01*
X123455Y-24891D01*
X123454Y-25107D01*
X123537Y-25308D01*
X123690Y-25461D01*
X123891Y-25544D01*
X124107Y-25545D01*
X124308Y-25462D01*
X124461Y-25309D01*
X124544Y-25108D01*
X124545Y-24892D01*
X124545Y-32298D01*
X124462Y-32462D01*
X123988Y-32700D01*
X123595Y-32700D01*
X123595Y-26295D01*
X123595Y-25605D01*
X123557Y-25513D01*
X123486Y-25443D01*
X123394Y-25405D01*
X123295Y-25404D01*
X122605Y-25404D01*
X122513Y-25442D01*
X122500Y-25456D01*
X122486Y-25443D01*
X122394Y-25405D01*
X122365Y-25405D01*
X122461Y-25309D01*
X122544Y-25108D01*
X122545Y-24892D01*
X122462Y-24691D01*
X122309Y-24538D01*
X122108Y-24455D01*
X121892Y-24454D01*
X121691Y-24537D01*
X121538Y-24690D01*
X121455Y-24891D01*
X121454Y-25107D01*
X121537Y-25308D01*
X121634Y-25404D01*
X121605Y-25404D01*
X121513Y-25442D01*
X121443Y-25513D01*
X121405Y-25605D01*
X121404Y-25704D01*
X121404Y-26394D01*
X121442Y-26486D01*
X121513Y-26556D01*
X121605Y-26594D01*
X121704Y-26595D01*
X122394Y-26595D01*
X122486Y-26557D01*
X122499Y-26543D01*
X122513Y-26556D01*
X122605Y-26594D01*
X122704Y-26595D01*
X123394Y-26595D01*
X123486Y-26557D01*
X123556Y-26486D01*
X123594Y-26394D01*
X123595Y-26295D01*
X123595Y-32700D01*
X123545Y-32700D01*
X123545Y-30892D01*
X123462Y-30691D01*
X123315Y-30545D01*
X123344Y-30545D01*
X123436Y-30507D01*
X123506Y-30436D01*
X123544Y-30344D01*
X123545Y-30245D01*
X123545Y-29655D01*
X123507Y-29563D01*
X123436Y-29493D01*
X123344Y-29455D01*
X123245Y-29454D01*
X122655Y-29454D01*
X122563Y-29492D01*
X122493Y-29563D01*
X122455Y-29655D01*
X122455Y-29684D01*
X122309Y-29538D01*
X122108Y-29455D01*
X121892Y-29454D01*
X121691Y-29537D01*
X121538Y-29690D01*
X121455Y-29891D01*
X121454Y-30107D01*
X121537Y-30308D01*
X121690Y-30461D01*
X121782Y-30499D01*
X121691Y-30537D01*
X121538Y-30690D01*
X121455Y-30891D01*
X121454Y-31107D01*
X121537Y-31308D01*
X121690Y-31461D01*
X121891Y-31544D01*
X122107Y-31545D01*
X122308Y-31462D01*
X122461Y-31309D01*
X122499Y-31217D01*
X122537Y-31308D01*
X122690Y-31461D01*
X122891Y-31544D01*
X123107Y-31545D01*
X123308Y-31462D01*
X123461Y-31309D01*
X123544Y-31108D01*
X123545Y-30892D01*
X123545Y-32700D01*
X121011Y-32700D01*
X120545Y-32466D01*
X120545Y-24892D01*
X120462Y-24691D01*
X120309Y-24538D01*
X120108Y-24455D01*
X119892Y-24454D01*
X119691Y-24537D01*
X119545Y-24684D01*
X119545Y-23010D01*
X119545Y-22989D01*
X119503Y-22780D01*
X119385Y-22603D01*
X119208Y-22485D01*
X119000Y-22444D01*
X118950Y-22454D01*
X118950Y-19479D01*
X118950Y-19050D01*
X118950Y-18950D01*
X118950Y-18520D01*
X118865Y-18471D01*
X118721Y-18531D01*
X118595Y-18645D01*
X118595Y-18605D01*
X118557Y-18513D01*
X118486Y-18443D01*
X118394Y-18405D01*
X118295Y-18404D01*
X118112Y-18405D01*
X118050Y-18467D01*
X118050Y-18950D01*
X118519Y-18950D01*
X118532Y-18950D01*
X118950Y-18950D01*
X118950Y-19050D01*
X118532Y-19050D01*
X118519Y-19050D01*
X118050Y-19050D01*
X118050Y-19057D01*
X117950Y-19057D01*
X117950Y-19050D01*
X117467Y-19050D01*
X117405Y-19112D01*
X117404Y-19394D01*
X117442Y-19486D01*
X117513Y-19556D01*
X117565Y-19578D01*
X117536Y-19607D01*
X117581Y-19652D01*
X117481Y-19685D01*
X117400Y-19907D01*
X117410Y-20143D01*
X117481Y-20314D01*
X117581Y-20347D01*
X117929Y-20000D01*
X117923Y-19994D01*
X117994Y-19923D01*
X118000Y-19929D01*
X118005Y-19923D01*
X118076Y-19994D01*
X118070Y-20000D01*
X118418Y-20347D01*
X118518Y-20314D01*
X118599Y-20092D01*
X118589Y-19856D01*
X118518Y-19685D01*
X118418Y-19652D01*
X118463Y-19607D01*
X118434Y-19578D01*
X118486Y-19556D01*
X118557Y-19486D01*
X118595Y-19394D01*
X118595Y-19354D01*
X118721Y-19468D01*
X118865Y-19528D01*
X118950Y-19479D01*
X118950Y-22454D01*
X118791Y-22485D01*
X118614Y-22603D01*
X118599Y-22626D01*
X118496Y-22780D01*
X118455Y-22989D01*
X118455Y-23010D01*
X118496Y-23219D01*
X118614Y-23396D01*
X118791Y-23514D01*
X119000Y-23555D01*
X119208Y-23514D01*
X119385Y-23396D01*
X119503Y-23219D01*
X119545Y-23010D01*
X119545Y-24684D01*
X119538Y-24690D01*
X119455Y-24891D01*
X119454Y-25107D01*
X119537Y-25308D01*
X119690Y-25461D01*
X119891Y-25544D01*
X120107Y-25545D01*
X120308Y-25462D01*
X120461Y-25309D01*
X120544Y-25108D01*
X120545Y-24892D01*
X120545Y-32466D01*
X120537Y-32462D01*
X120300Y-31988D01*
X120300Y-28250D01*
X120300Y-27738D01*
X120037Y-27212D01*
X119595Y-26991D01*
X119595Y-26295D01*
X119595Y-25605D01*
X119557Y-25513D01*
X119486Y-25443D01*
X119394Y-25405D01*
X119295Y-25404D01*
X118605Y-25404D01*
X118513Y-25442D01*
X118500Y-25456D01*
X118486Y-25443D01*
X118394Y-25405D01*
X118365Y-25405D01*
X118461Y-25309D01*
X118544Y-25108D01*
X118545Y-24892D01*
X118462Y-24691D01*
X118347Y-24576D01*
X118347Y-20418D01*
X118000Y-20070D01*
X117929Y-20141D01*
X117652Y-20418D01*
X117685Y-20518D01*
X117907Y-20599D01*
X118143Y-20589D01*
X118314Y-20518D01*
X118347Y-20418D01*
X118347Y-24576D01*
X118309Y-24538D01*
X118108Y-24455D01*
X117892Y-24454D01*
X117691Y-24537D01*
X117538Y-24690D01*
X117455Y-24891D01*
X117454Y-25107D01*
X117537Y-25308D01*
X117634Y-25404D01*
X117605Y-25404D01*
X117513Y-25442D01*
X117443Y-25513D01*
X117405Y-25605D01*
X117404Y-25704D01*
X117404Y-26394D01*
X117442Y-26486D01*
X117513Y-26556D01*
X117605Y-26594D01*
X117704Y-26595D01*
X118394Y-26595D01*
X118486Y-26557D01*
X118499Y-26543D01*
X118513Y-26556D01*
X118605Y-26594D01*
X118704Y-26595D01*
X119394Y-26595D01*
X119486Y-26557D01*
X119556Y-26486D01*
X119594Y-26394D01*
X119595Y-26295D01*
X119595Y-26991D01*
X119511Y-26950D01*
X119000Y-26950D01*
X118011Y-26950D01*
X117537Y-26712D01*
X117300Y-26238D01*
X117300Y-19011D01*
X117404Y-18801D01*
X117405Y-18887D01*
X117467Y-18950D01*
X117950Y-18950D01*
X117950Y-18467D01*
X117887Y-18405D01*
X117801Y-18404D01*
X118011Y-18300D01*
X125988Y-18300D01*
X126462Y-18537D01*
X126700Y-19011D01*
X126700Y-25988D01*
X126700Y-25988D01*
G37*
G54D16*
X126700Y-25988D02*
X126462Y-26462D01*
X126055Y-26666D01*
X126055Y-24000D01*
X126014Y-23791D01*
X125896Y-23614D01*
X125719Y-23496D01*
X125538Y-23460D01*
X125635Y-23396D01*
X125753Y-23219D01*
X125795Y-23010D01*
X125795Y-22989D01*
X125795Y-19010D01*
X125795Y-18989D01*
X125753Y-18780D01*
X125635Y-18603D01*
X125458Y-18485D01*
X125250Y-18444D01*
X125041Y-18485D01*
X124864Y-18603D01*
X124746Y-18780D01*
X124705Y-18989D01*
X124705Y-19010D01*
X124746Y-19219D01*
X124864Y-19396D01*
X125041Y-19514D01*
X125250Y-19555D01*
X125458Y-19514D01*
X125635Y-19396D01*
X125753Y-19219D01*
X125795Y-19010D01*
X125795Y-22989D01*
X125753Y-22780D01*
X125635Y-22603D01*
X125458Y-22485D01*
X125250Y-22444D01*
X125041Y-22485D01*
X124864Y-22603D01*
X124746Y-22780D01*
X124705Y-22989D01*
X124705Y-23010D01*
X124746Y-23219D01*
X124864Y-23396D01*
X125041Y-23514D01*
X125205Y-23546D01*
X125103Y-23614D01*
X124985Y-23791D01*
X124944Y-24000D01*
X124985Y-24208D01*
X125103Y-24385D01*
X125280Y-24503D01*
X125489Y-24545D01*
X125510Y-24545D01*
X125719Y-24503D01*
X125896Y-24385D01*
X126014Y-24208D01*
X126055Y-24000D01*
X126055Y-26666D01*
X125988Y-26700D01*
X125488Y-26700D01*
X124962Y-26962D01*
X124700Y-27488D01*
X124700Y-29750D01*
X124700Y-31988D01*
X124555Y-32276D01*
X124555Y-23000D01*
X124555Y-20000D01*
X124514Y-19791D01*
X124396Y-19614D01*
X124219Y-19496D01*
X124010Y-19455D01*
X123989Y-19455D01*
X123780Y-19496D01*
X123603Y-19614D01*
X123500Y-19770D01*
X123396Y-19614D01*
X123366Y-19595D01*
X123394Y-19595D01*
X123486Y-19557D01*
X123556Y-19486D01*
X123594Y-19394D01*
X123595Y-19295D01*
X123595Y-18605D01*
X123557Y-18513D01*
X123486Y-18443D01*
X123394Y-18405D01*
X123295Y-18404D01*
X122605Y-18404D01*
X122513Y-18442D01*
X122500Y-18456D01*
X122486Y-18443D01*
X122394Y-18405D01*
X122295Y-18404D01*
X121605Y-18404D01*
X121513Y-18442D01*
X121500Y-18456D01*
X121486Y-18443D01*
X121394Y-18405D01*
X121295Y-18404D01*
X120605Y-18404D01*
X120513Y-18442D01*
X120443Y-18513D01*
X120405Y-18605D01*
X120404Y-18704D01*
X120404Y-19394D01*
X120442Y-19486D01*
X120513Y-19556D01*
X120605Y-19594D01*
X120633Y-19594D01*
X120603Y-19614D01*
X120485Y-19791D01*
X120444Y-20000D01*
X120485Y-20208D01*
X120603Y-20385D01*
X120780Y-20503D01*
X120989Y-20545D01*
X121010Y-20545D01*
X121219Y-20503D01*
X121396Y-20385D01*
X121500Y-20229D01*
X121603Y-20385D01*
X121780Y-20503D01*
X121989Y-20545D01*
X122010Y-20545D01*
X122219Y-20503D01*
X122396Y-20385D01*
X122500Y-20229D01*
X122603Y-20385D01*
X122780Y-20503D01*
X122989Y-20545D01*
X123010Y-20545D01*
X123219Y-20503D01*
X123396Y-20385D01*
X123500Y-20229D01*
X123603Y-20385D01*
X123780Y-20503D01*
X123989Y-20545D01*
X124010Y-20545D01*
X124219Y-20503D01*
X124396Y-20385D01*
X124514Y-20208D01*
X124555Y-20000D01*
X124555Y-23000D01*
X124514Y-22791D01*
X124396Y-22614D01*
X124219Y-22496D01*
X124010Y-22455D01*
X123989Y-22455D01*
X123780Y-22496D01*
X123603Y-22614D01*
X123500Y-22770D01*
X123396Y-22614D01*
X123219Y-22496D01*
X123010Y-22455D01*
X122989Y-22455D01*
X122780Y-22496D01*
X122603Y-22614D01*
X122500Y-22770D01*
X122396Y-22614D01*
X122219Y-22496D01*
X122010Y-22455D01*
X121989Y-22455D01*
X121780Y-22496D01*
X121603Y-22614D01*
X121545Y-22702D01*
X121545Y-22655D01*
X121507Y-22563D01*
X121436Y-22493D01*
X121344Y-22455D01*
X121245Y-22454D01*
X120655Y-22454D01*
X120563Y-22492D01*
X120544Y-22511D01*
X120545Y-22392D01*
X120545Y-20392D01*
X120462Y-20191D01*
X120309Y-20038D01*
X120108Y-19955D01*
X119892Y-19954D01*
X119691Y-20037D01*
X119538Y-20190D01*
X119528Y-20215D01*
X119528Y-19134D01*
X119528Y-18865D01*
X119436Y-18673D01*
X119278Y-18531D01*
X119134Y-18471D01*
X119050Y-18520D01*
X119050Y-18950D01*
X119480Y-18950D01*
X119528Y-18865D01*
X119528Y-19134D01*
X119480Y-19050D01*
X119050Y-19050D01*
X119050Y-19479D01*
X119134Y-19528D01*
X119278Y-19468D01*
X119436Y-19326D01*
X119528Y-19134D01*
X119528Y-20215D01*
X119455Y-20391D01*
X119454Y-20607D01*
X119537Y-20808D01*
X119690Y-20961D01*
X119891Y-21044D01*
X120107Y-21045D01*
X120308Y-20962D01*
X120461Y-20809D01*
X120544Y-20608D01*
X120545Y-20392D01*
X120545Y-22392D01*
X120462Y-22191D01*
X120309Y-22038D01*
X120108Y-21955D01*
X119892Y-21954D01*
X119691Y-22037D01*
X119538Y-22190D01*
X119455Y-22391D01*
X119454Y-22607D01*
X119537Y-22808D01*
X119690Y-22961D01*
X119891Y-23044D01*
X120107Y-23045D01*
X120308Y-22962D01*
X120454Y-22815D01*
X120454Y-23344D01*
X120492Y-23436D01*
X120563Y-23506D01*
X120655Y-23544D01*
X120754Y-23545D01*
X121208Y-23545D01*
X121103Y-23614D01*
X120985Y-23791D01*
X120944Y-24000D01*
X120985Y-24208D01*
X121103Y-24385D01*
X121280Y-24503D01*
X121489Y-24545D01*
X121510Y-24545D01*
X121719Y-24503D01*
X121896Y-24385D01*
X122014Y-24208D01*
X122055Y-24000D01*
X122014Y-23791D01*
X121896Y-23614D01*
X121719Y-23496D01*
X121510Y-23455D01*
X121489Y-23455D01*
X121488Y-23455D01*
X121506Y-23436D01*
X121544Y-23344D01*
X121544Y-23297D01*
X121603Y-23385D01*
X121780Y-23503D01*
X121989Y-23545D01*
X122010Y-23545D01*
X122219Y-23503D01*
X122396Y-23385D01*
X122500Y-23229D01*
X122603Y-23385D01*
X122780Y-23503D01*
X122989Y-23545D01*
X123010Y-23545D01*
X123219Y-23503D01*
X123396Y-23385D01*
X123500Y-23229D01*
X123603Y-23385D01*
X123780Y-23503D01*
X123989Y-23545D01*
X124010Y-23545D01*
X124219Y-23503D01*
X124396Y-23385D01*
X124514Y-23208D01*
X124555Y-23000D01*
X124555Y-32276D01*
X124545Y-32298D01*
X124545Y-24892D01*
X124462Y-24691D01*
X124309Y-24538D01*
X124108Y-24455D01*
X123892Y-24454D01*
X123691Y-24537D01*
X123538Y-24690D01*
X123455Y-24891D01*
X123454Y-25107D01*
X123537Y-25308D01*
X123690Y-25461D01*
X123891Y-25544D01*
X124107Y-25545D01*
X124308Y-25462D01*
X124461Y-25309D01*
X124544Y-25108D01*
X124545Y-24892D01*
X124545Y-32298D01*
X124462Y-32462D01*
X123988Y-32700D01*
X123595Y-32700D01*
X123595Y-26295D01*
X123595Y-25605D01*
X123557Y-25513D01*
X123486Y-25443D01*
X123394Y-25405D01*
X123295Y-25404D01*
X122605Y-25404D01*
X122513Y-25442D01*
X122500Y-25456D01*
X122486Y-25443D01*
X122394Y-25405D01*
X122365Y-25405D01*
X122461Y-25309D01*
X122544Y-25108D01*
X122545Y-24892D01*
X122462Y-24691D01*
X122309Y-24538D01*
X122108Y-24455D01*
X121892Y-24454D01*
X121691Y-24537D01*
X121538Y-24690D01*
X121455Y-24891D01*
X121454Y-25107D01*
X121537Y-25308D01*
X121634Y-25404D01*
X121605Y-25404D01*
X121513Y-25442D01*
X121443Y-25513D01*
X121405Y-25605D01*
X121404Y-25704D01*
X121404Y-26394D01*
X121442Y-26486D01*
X121513Y-26556D01*
X121605Y-26594D01*
X121704Y-26595D01*
X122394Y-26595D01*
X122486Y-26557D01*
X122499Y-26543D01*
X122513Y-26556D01*
X122605Y-26594D01*
X122704Y-26595D01*
X123394Y-26595D01*
X123486Y-26557D01*
X123556Y-26486D01*
X123594Y-26394D01*
X123595Y-26295D01*
X123595Y-32700D01*
X123545Y-32700D01*
X123545Y-30892D01*
X123462Y-30691D01*
X123315Y-30545D01*
X123344Y-30545D01*
X123436Y-30507D01*
X123506Y-30436D01*
X123544Y-30344D01*
X123545Y-30245D01*
X123545Y-29655D01*
X123507Y-29563D01*
X123436Y-29493D01*
X123344Y-29455D01*
X123245Y-29454D01*
X122655Y-29454D01*
X122563Y-29492D01*
X122493Y-29563D01*
X122455Y-29655D01*
X122455Y-29684D01*
X122309Y-29538D01*
X122108Y-29455D01*
X121892Y-29454D01*
X121691Y-29537D01*
X121538Y-29690D01*
X121455Y-29891D01*
X121454Y-30107D01*
X121537Y-30308D01*
X121690Y-30461D01*
X121782Y-30499D01*
X121691Y-30537D01*
X121538Y-30690D01*
X121455Y-30891D01*
X121454Y-31107D01*
X121537Y-31308D01*
X121690Y-31461D01*
X121891Y-31544D01*
X122107Y-31545D01*
X122308Y-31462D01*
X122461Y-31309D01*
X122499Y-31217D01*
X122537Y-31308D01*
X122690Y-31461D01*
X122891Y-31544D01*
X123107Y-31545D01*
X123308Y-31462D01*
X123461Y-31309D01*
X123544Y-31108D01*
X123545Y-30892D01*
X123545Y-32700D01*
X121011Y-32700D01*
X120545Y-32466D01*
X120545Y-24892D01*
X120462Y-24691D01*
X120309Y-24538D01*
X120108Y-24455D01*
X119892Y-24454D01*
X119691Y-24537D01*
X119545Y-24684D01*
X119545Y-23010D01*
X119545Y-22989D01*
X119503Y-22780D01*
X119385Y-22603D01*
X119208Y-22485D01*
X119000Y-22444D01*
X118950Y-22454D01*
X118950Y-19479D01*
X118950Y-19050D01*
X118950Y-18950D01*
X118950Y-18520D01*
X118865Y-18471D01*
X118721Y-18531D01*
X118595Y-18645D01*
X118595Y-18605D01*
X118557Y-18513D01*
X118486Y-18443D01*
X118394Y-18405D01*
X118295Y-18404D01*
X118112Y-18405D01*
X118050Y-18467D01*
X118050Y-18950D01*
X118519Y-18950D01*
X118532Y-18950D01*
X118950Y-18950D01*
X118950Y-19050D01*
X118532Y-19050D01*
X118519Y-19050D01*
X118050Y-19050D01*
X118050Y-19057D01*
X117950Y-19057D01*
X117950Y-19050D01*
X117467Y-19050D01*
X117405Y-19112D01*
X117404Y-19394D01*
X117442Y-19486D01*
X117513Y-19556D01*
X117565Y-19578D01*
X117536Y-19607D01*
X117581Y-19652D01*
X117481Y-19685D01*
X117400Y-19907D01*
X117410Y-20143D01*
X117481Y-20314D01*
X117581Y-20347D01*
X117929Y-20000D01*
X117923Y-19994D01*
X117994Y-19923D01*
X118000Y-19929D01*
X118005Y-19923D01*
X118076Y-19994D01*
X118070Y-20000D01*
X118418Y-20347D01*
X118518Y-20314D01*
X118599Y-20092D01*
X118589Y-19856D01*
X118518Y-19685D01*
X118418Y-19652D01*
X118463Y-19607D01*
X118434Y-19578D01*
X118486Y-19556D01*
X118557Y-19486D01*
X118595Y-19394D01*
X118595Y-19354D01*
X118721Y-19468D01*
X118865Y-19528D01*
X118950Y-19479D01*
X118950Y-22454D01*
X118791Y-22485D01*
X118614Y-22603D01*
X118599Y-22626D01*
X118496Y-22780D01*
X118455Y-22989D01*
X118455Y-23010D01*
X118496Y-23219D01*
X118614Y-23396D01*
X118791Y-23514D01*
X119000Y-23555D01*
X119208Y-23514D01*
X119385Y-23396D01*
X119503Y-23219D01*
X119545Y-23010D01*
X119545Y-24684D01*
X119538Y-24690D01*
X119455Y-24891D01*
X119454Y-25107D01*
X119537Y-25308D01*
X119690Y-25461D01*
X119891Y-25544D01*
X120107Y-25545D01*
X120308Y-25462D01*
X120461Y-25309D01*
X120544Y-25108D01*
X120545Y-24892D01*
X120545Y-32466D01*
X120537Y-32462D01*
X120300Y-31988D01*
X120300Y-28250D01*
X120300Y-27738D01*
X120037Y-27212D01*
X119595Y-26991D01*
X119595Y-26295D01*
X119595Y-25605D01*
X119557Y-25513D01*
X119486Y-25443D01*
X119394Y-25405D01*
X119295Y-25404D01*
X118605Y-25404D01*
X118513Y-25442D01*
X118500Y-25456D01*
X118486Y-25443D01*
X118394Y-25405D01*
X118365Y-25405D01*
X118461Y-25309D01*
X118544Y-25108D01*
X118545Y-24892D01*
X118462Y-24691D01*
X118347Y-24576D01*
X118347Y-20418D01*
X118000Y-20070D01*
X117929Y-20141D01*
X117652Y-20418D01*
X117685Y-20518D01*
X117907Y-20599D01*
X118143Y-20589D01*
X118314Y-20518D01*
X118347Y-20418D01*
X118347Y-24576D01*
X118309Y-24538D01*
X118108Y-24455D01*
X117892Y-24454D01*
X117691Y-24537D01*
X117538Y-24690D01*
X117455Y-24891D01*
X117454Y-25107D01*
X117537Y-25308D01*
X117634Y-25404D01*
X117605Y-25404D01*
X117513Y-25442D01*
X117443Y-25513D01*
X117405Y-25605D01*
X117404Y-25704D01*
X117404Y-26394D01*
X117442Y-26486D01*
X117513Y-26556D01*
X117605Y-26594D01*
X117704Y-26595D01*
X118394Y-26595D01*
X118486Y-26557D01*
X118499Y-26543D01*
X118513Y-26556D01*
X118605Y-26594D01*
X118704Y-26595D01*
X119394Y-26595D01*
X119486Y-26557D01*
X119556Y-26486D01*
X119594Y-26394D01*
X119595Y-26295D01*
X119595Y-26991D01*
X119511Y-26950D01*
X119000Y-26950D01*
X118011Y-26950D01*
X117537Y-26712D01*
X117300Y-26238D01*
X117300Y-19011D01*
X117404Y-18801D01*
X117405Y-18887D01*
X117467Y-18950D01*
X117950Y-18950D01*
X117950Y-18467D01*
X117887Y-18405D01*
X117801Y-18404D01*
X118011Y-18300D01*
X125988Y-18300D01*
X126462Y-18537D01*
X126700Y-19011D01*
X126700Y-25988D01*
M02*
