M48
;DRILL file {Pcbnew (2013-07-07 BZR 4022)-stable} date Sat 06 Aug 2022 08:08:20 PM CDT
;FORMAT={-:-/ absolute / inch / decimal}
FMAT,2
INCH,TZ
T1C0.032
T2C0.040
T3C0.056
%
G90
G05
M72
T1
X6.5Y-5.55
X6.5Y-5.75
X6.6Y-5.45
X6.6Y-5.85
X6.7Y-5.45
X6.7Y-5.85
X6.8Y-5.45
X6.8Y-5.55
X6.8Y-5.65
X6.8Y-5.75
X6.85Y-5.9
X7.05Y-5.9
X7.1Y-5.45
X7.1Y-5.55
X7.1Y-5.65
X7.1Y-5.75
X7.2Y-5.55
X7.2Y-5.65
X7.2Y-5.75
X7.2Y-5.85
X7.3Y-5.55
X7.3Y-5.85
X7.4Y-5.5
X7.45Y-5.7
X7.45Y-5.9
X7.55Y-5.4
X7.75Y-5.4
X7.8Y-5.5
T2
X7.25Y-5.4
X7.35Y-5.4
X8.075Y-5.525
X8.075Y-5.625
X8.175Y-5.525
X8.175Y-5.625
T3
X6.5Y-5.4
X6.5Y-5.9
X7.6Y-5.7
X7.6Y-5.8
T0
M30
