G04 (created by PCBNEW (2013-07-07 BZR 4022)-stable) date Sat 06 Aug 2022 08:08:16 PM CDT*
%MOIN*%
G04 Gerber Fmt 3.4, Leading zero omitted, Abs format*
%FSLAX34Y34*%
G01*
G70*
G90*
G04 APERTURE LIST*
%ADD10C,0.00590551*%
%ADD11C,0.00393701*%
G04 APERTURE END LIST*
G54D10*
G54D11*
X83000Y-53250D02*
X83500Y-53250D01*
X83000Y-59750D02*
X83500Y-59750D01*
X78250Y-56000D02*
X79000Y-56000D01*
X78250Y-55500D02*
X79000Y-55500D01*
X79750Y-54250D02*
X79750Y-55250D01*
X79250Y-55250D02*
X79250Y-54250D01*
X79000Y-56000D02*
G75*
G03X79750Y-55250I0J750D01*
G74*
G01*
X79750Y-54250D02*
G75*
G03X79500Y-54000I-250J0D01*
G74*
G01*
X79500Y-54000D02*
G75*
G03X79250Y-54250I0J-250D01*
G74*
G01*
X79000Y-55500D02*
G75*
G03X79250Y-55250I0J250D01*
G74*
G01*
X78250Y-55500D02*
G75*
G03X78000Y-55750I0J-250D01*
G74*
G01*
X78000Y-55750D02*
G75*
G03X78250Y-56000I250J0D01*
G74*
G01*
X82250Y-57500D02*
G75*
G03X82500Y-57250I0J250D01*
G74*
G01*
X82500Y-57250D02*
G75*
G03X82250Y-57000I-250J0D01*
G74*
G01*
X78250Y-57500D02*
X82250Y-57500D01*
X78250Y-57000D02*
X82250Y-57000D01*
X78000Y-57250D02*
G75*
G03X78250Y-57500I250J0D01*
G74*
G01*
X78250Y-57000D02*
G75*
G03X78000Y-57250I0J-250D01*
G74*
G01*
X64250Y-59500D02*
X64250Y-53500D01*
X83000Y-59750D02*
X64500Y-59750D01*
X83750Y-53500D02*
X83750Y-59500D01*
X64500Y-53250D02*
X83000Y-53250D01*
X83500Y-59750D02*
G75*
G03X83750Y-59500I0J250D01*
G74*
G01*
X83750Y-53500D02*
G75*
G03X83500Y-53250I-250J0D01*
G74*
G01*
X64500Y-53250D02*
G75*
G03X64250Y-53500I0J-250D01*
G74*
G01*
X64250Y-59500D02*
G75*
G03X64500Y-59750I250J0D01*
G74*
G01*
M02*
